<?xml version="1.0" encoding="utf-8"?>
<!-- Generator: Adobe Illustrator 24.3.0, SVG Export Plug-In . SVG Version: 6.00 Build 0)  -->
<svg version="1.1" xmlns="http://www.w3.org/2000/svg" xmlns:xlink="http://www.w3.org/1999/xlink" x="0px" y="0px"
	 viewBox="0 0 1920 1080" style="enable-background:new 0 0 1920 1080;" xml:space="preserve">
<style type="text/css">
	.st0{fill:#FFFFFF;}
	.st1{fill:#FF9900;}
	.st2{fill:#F2F9F9;}
	.st3{fill:#F8F7EF;}
	.st4{fill:#0D0C0C;}
	.st5{fill:#0E0D0D;}
	.st6{fill:#0A0701;}
	.st7{fill:#0A0603;}
	.st8{fill:#120B03;}
	.st9{fill:#120D05;}
	.st10{fill:#C4BDBD;}
	.st11{fill:#DBDCDC;}
	.st12{fill:#D0DEDE;}
	.st13{fill:#E5EFEF;}
	.st14{fill:none;}
</style>
<g id="instruction_x5F_box_xA0_Image_1_">
	<g>
		<g>
			<path d="M1004.3,214.5c-4,0.1-7.8,0.5-11.6,0.3c-22.1-1-41-16.1-46.5-37.2c-6.1-23.2,5.4-46.4,26-56.7c8.9-4.5,18.4-6.3,28.4-5.1
				c0.8,0.1,1.6,0.2,2.4,0.2c0.9,0.1,1.5-0.3,1.5-1.3c0-2.6,0-5.1,0-7.7c0-5.8,2.6-9.2,8.1-11c2.8-0.9,5.6-1.2,8.5-1.2
				c28.6,0,57.2,0,85.9,0c193.5,0,387,0,580.5,0.1c15.2,0,30.4,0.1,45.6,0.2c4.3,0,8.6,0.3,12.9,0.7c5.9,0.5,9.7,4.1,10.4,10
				c0.4,3.5,0.2,7,0.2,10.5c0,34.2,0,68.4,0,102.6c0,2.6,0.1,5.1,0,7.7c0,1.4-0.2,2.9-0.5,4.3c-0.9,4.1-3.6,6.8-7.6,7.8
				c-2.5,0.6-5,0.9-7.6,0.9c-13,0.2-25.9,0.3-38.9,0.3c-78.2,0.1-156.4,0.1-234.6,0.1c-106.5,0-213,0-319.5,0.1
				c-42.1,0-84.1,0-126.2,0.1c-3.4,0-6.7-0.4-9.9-1.5c-4.9-1.7-7.6-5.6-7.4-10.5c0.1-3.7,0-7.4,0-11
				C1004.5,216.4,1004.3,215.5,1004.3,214.5z"/>
			<path class="st0" d="M1729,114.3c-0.2,5.3,1.8,8.9,6.7,10.7c0,4.4,0,8.7,0,13c0,22.5,0,45.1,0,67.6c0,1.1,0,2.2,0,3.4
				c0,1.1-0.4,1.7-1.3,2.3c-1.2,0.8-2.3,1.8-3.2,2.9c-1.3,1.5-2.1,3.2-2.1,5.2c0,1.2-0.7,1.7-1.8,1.8c-0.8,0.1-1.6,0.1-2.4,0.1
				c-8.5-0.1-16.9-0.4-25.4-0.4c-127.3-0.1-254.6-0.1-381.8-0.1c-92.6,0-185.2,0-277.7,0c-1.8,0-3.5,0-5.2,0c-1-3.1-2-5.9-3-8.7
				c2.1-2,4.1-3.9,6.1-5.6c6.3-5.4,10-12.4,12.3-20.2c3.5-11.6,2.7-23.1-1.8-34.2c-1.4-3.6-3.6-6.9-6.7-9.2c-3-2.3-4.5-5.7-6.8-8.6
				c-0.3-0.4-0.3-1.3,0-1.7c1.9-3.9,3.9-7.7,5.8-11.6c0.7-1.5,1.8-2,3.4-2.1c8.6-0.4,17.2-1.3,25.8-1.3c38.5-0.2,77.1,0,115.6-0.1
				c36.3-0.1,72.6-0.3,108.9-0.5c18.9-0.1,37.7-0.2,56.6-0.3c7.4-0.1,14.7-0.1,22.1-0.4c6.4-0.3,12.7-1,19.1-1.5
				c1.6-0.1,3.2-0.1,4.8-0.1c100.4-0.1,200.8-0.1,301.2-0.2c8.8,0,17.6-0.1,26.4-0.2C1726,114.1,1727.4,114.2,1729,114.3z"/>
			<path class="st1" d="M1749.3,104.4c1.5,1.4,1.1,3.3,1.1,5c0,8.3-0.1,16.6-0.1,24.9c0,28.3,0,56.6,0,84.8c0,2.9,0.2,5.8,0.1,8.6
				c-0.1,3.5-1.4,5.3-4.8,6.3c-2,0.6-4.1,0.9-6.1,0.9c-19.3-0.1-38.7-0.5-58-0.5c-219.3-0.1-438.6-0.2-657.9-0.2
				c-1.4,0-2.9,0.1-4.3,0c-1.9-0.3-3.8-0.7-5.6-1.2c-1.9-0.6-2.8-2.1-3-4c-0.1-0.6-0.1-1.3-0.1-1.9c0-4,0.2-8,0.1-12
				c0-1.7,0.7-2.6,2.3-3.1c2.1-0.8,4.1-1.8,6.2-2.6c1.1-0.5,1.9,0.1,1.7,1.4c-0.1,1.1-0.5,2.2-0.7,3.2c-0.2,1.2,0.5,2.5,1.6,2.5
				c4.2-0.2,6,2.1,6.8,5.9c0.1,0.6,1.1,1.1,1.6,1.6c2.1,2.2,4.8,2.9,7.8,2.9c33.4,0,66.8,0.4,100.2-0.2c10.9-0.2,21.7-0.6,32.6-0.6
				c83.5,0,166.9,0.4,250.4-0.4c42.4-0.4,84.7-1.1,127.1-0.4c58.8,1,117.7,0.1,176.5,0.6c3.5,0,7.1,0.4,10.1-2
				c2.2-1.3,2.6,0.7,3.4,2c1.1,1.9,2.8,2.5,4.9,1.9c2.2-0.6,2.8-2.4,2.9-4.4c0-2.2-0.9-3.6-3.3-3.8c-1.1-0.1-2.3,0-2.4-1.6
				c1.7-16.3,4.1-32.5,3.9-49c-0.1-9.4,1.5-18.7-0.2-28.1c-0.9-5.1-1.6-10.3-3.6-15.2c-0.1-0.9-0.2-1.9-0.3-2.8
				c-0.1-0.9-0.4-1.5-1.3-1.7c-0.6-0.1-1.2-0.4-1.8-0.6c-1.9-0.9-3.1-2.2-3-4.4c0-0.5,0-1,0-1.4c-0.2-1.7-0.7-2.3-2.4-2.4
				c-4.5-0.3-8.9-0.6-13.4-0.6c-37.1-0.1-74.2-0.2-111.3-0.2c-149.3,0-298.7,0-448,0c-40,0-80,0-119.9,0c-1.3,0-2.6,0.1-3.8,0
				c-3.1-0.1-5.7,0.2-6.6,3.9c-0.5,1.8-2.2,2.5-4.2,2.5c-2.8,0-2.8,0.1-3.4,3.1c-0.1,0.3-0.3,0.6-0.5,1.1c-2.7-1.3-5.4-2.5-8.1-3.8
				c-0.8-3.2,0.1-6.3,0.8-9.3c1.1-4.5,3.2-5.9,8.2-5.9c2.2,2.4-0.5,2.8-1.6,3.4c-2,1.1-3.6,2.1-2.4,4.7c0.8,1.7,2.2,2.9,4.1,2.2
				c2.3-0.8,4.3-2.1,4-5.1c-0.3-1.9-1.7-4.1,1.6-4.8c2.7-0.5,5.4-0.4,8.1-0.4c232.1,0,464.3,0,696.4,0c2.7,0,5.4-0.2,8.1,0.3
				c1.6,0.5,3.2,1.1,1.2,3.1c-0.4,0.4-1,0.8-1.4,1.2c-1.9,1.7-2.5,3.7-1.1,5.9c1,1.7,2.6,2.3,4.5,1.6c2.5-1,3.4-3,3.3-5.7
				c0-2-2.9-3.3-1-5.6C1746.5,103.2,1747.9,103.5,1749.3,104.4z"/>
			<path class="st0" d="M995.1,210.1c-12.9-0.2-24-4.7-33.1-13.9c-16.4-16.6-17-42.9-1.5-60.4c17.1-19.3,47.4-20.9,66.1-3.3
				c12.4,11.6,17.1,26.1,13.2,42.7c-3.9,16.7-14.8,27.5-31.1,32.9C1004.4,209.5,999.8,210.3,995.1,210.1z"/>
			<path class="st2" d="M1736.3,224.1c-1.1,2.5-2.9,3.6-5.7,3.2c-1.4-0.2-2.9-0.2-4.3-0.2c-50.9,0-101.7,0.1-152.6,0
				c-33.6-0.1-67.2-0.5-100.7-0.5c-52.3,0.1-104.6,0.5-156.9,0.7c-44,0.1-88,0-131.9,0.1c-28.5,0.1-56.9,0.6-85.4,0.8
				c-20.6,0.1-41.3,0.1-61.9,0.1c-0.3,0-0.6,0-1,0c-3.7-0.1-4.4-0.7-5.7-4.5c7.2,0.1,14.4,0.3,21.5,0.3
				c211.9-0.1,423.7-0.1,635.6-0.2c13,0,25.9-0.2,38.9-0.4c1.4,0,2.9,0,4.3-0.2c1.9-0.2,2.9-1.1,3-3.1c0.1-2.4,1.3-3.9,3-5.2
				c0.8-0.6,1.6-1.1,2.2-1.8c0.9-0.9,1.5-2,1.5-3.4c0-1.8,0.1-3.5,0.1-5.3c0-24.8,0-49.5,0-74.3c0-1.6,0.1-3.2,0.1-4.8
				c1.2,0.4,1.7,1.4,2.1,2.4c0.7,2.1,1.4,4.2,1.8,6.4c2,9.3,2.1,18.6,1.5,28.1c-0.4,6.2-0.2,12.4-0.6,18.6
				c-0.5,7.5-1.2,14.9-1.9,22.4c-0.1,1.1-0.4,2.2-0.8,3.3c-0.7,2.2-1.6,4.3-0.1,6.8c1.1,1.7-0.5,3.6-1.7,5.1
				C1739.6,220.7,1738.5,222.9,1736.3,224.1z"/>
			<path class="st3" d="M1021.4,103.8c-1.4,0.2-2.9,0.2-4.2,0.7c-1.7,0.6-2.8,1.9-3,3.9c-0.2,2.1-0.6,4.1-1,6.1
				c-0.3,1.2-0.7,2.4-1.1,3.6c-0.5-0.4-1.3-0.7-1.3-1.1c-0.2-3.3-0.3-6.7-0.3-10.1c0-2.5,1.4-4.2,3.8-4.9c1.8-0.5,3.7-0.8,5.6-1
				c1.4-0.2,2.9,0,4.3,0c187.5-0.1,375-0.1,562.5-0.2c41.6,0,83.1,0,124.7-0.1c9.4,0,18.9-0.2,28.3-0.3c2.6,0,5.1,0.3,7.4,1.5
				c1,0.5,2,1.1,2.1,2.4c-1.8,0.1-3.5,0.1-5.3,0.2c-0.7,0.7-1.4,0.7-2,0c-1.6-0.1-3.2-0.2-4.8-0.2c-233.2,0-466.4,0-699.6,0
				c-4.3,0-8.6,0-12.9-0.1C1023.4,105.2,1022.4,104.5,1021.4,103.8z"/>
			<path class="st4" d="M1063.9,186.4c0,7.2-2.8,13.2-7.8,18.2c-0.7,0.7-1.8,1.3-2.8,1.6c-0.6,0.2-1.5-0.3-2-0.8
				c-0.3-0.3-0.3-1.2,0-1.7c0.3-0.7,0.9-1.3,1.4-1.9c2.7-2.8,4.5-6.1,5.9-9.7c1.2-2.9,2.4-5.9,3.6-8.8c0.1-0.3,0.7-0.5,1.1-0.5
				c0.2,0,0.5,0.4,0.6,0.6C1064,184.5,1063.9,185.5,1063.9,186.4z"/>
			<path class="st5" d="M1068.1,202.2c0.2,3.3-1.4,5.8-3.9,7.8c-0.7,0.5-1.7,0.8-2.6,0.9c-1.7,0.1-3-2.1-2.1-3.4
				c2.1-2.8,4.3-5.5,6.5-8.2c0.5-0.6,1.7-0.2,1.9,0.6c0.1,0.3,0.1,0.6,0.1,0.9C1068,201.3,1068,201.7,1068.1,202.2z"/>
			<path class="st6" d="M1741.9,104.6c0.7,0,1.4,0,2.1,0c0.6,0.5,1.3,0.9,1.9,1.4c1.8,2,2,4.3,1.1,6.6c-0.9,2.4-2.8,3.8-5.3,4.2
				c-2.4,0.4-4.6-1.1-5.5-3.5c-0.9-2.5-0.1-5.4,2.1-6.7C1739.5,105.9,1740.7,105.3,1741.9,104.6z"/>
			<path class="st7" d="M1736.3,224.1c0.5-2.6,1.6-4.8,4.5-5.6c0.5,0,0.9-0.1,1.4-0.1c0.8-0.1,1.6-0.5,2.3-0.3
				c0.8,0.3,1.7,0.9,2.2,1.7c1.4,2.2,1.2,4.6,0.1,6.8c-1,2.1-2.9,3-5.1,2.9c-1.2-0.1-2.5-0.6-3.5-1.2
				C1736.5,227.5,1736.4,225.7,1736.3,224.1z"/>
			<path class="st8" d="M1021.4,103.8c1.1,0.2,2.2,0.3,3.3,0.5c0.2,0.2,0.4,0.5,0.6,0.7c1.8,1.8,2.1,3.9,0.9,6.1
				c-1.2,2.2-3.2,3.5-5.8,3.6c-2.3,0.1-4.6-1.8-5-4.3c-0.1-0.9,0.1-1.9,0.4-2.8c0.5-1.2,1.4-1.9,2.8-2.3
				C1019.6,105.3,1020.5,104.4,1021.4,103.8z"/>
			<path class="st9" d="M1014.9,224.8c-0.1-2.8,3.1-5.8,5.8-5.6c2.5,0.1,4.8,2.4,5,4.9c0.2,3.1-2.4,5.7-5.6,5.8
				C1017.2,229.9,1014.9,227.7,1014.9,224.8z"/>
			<path d="M985.6,199.3c1.2-2.6,2.2-5.1,3.4-7.5c1.1-2.2,2.8-3.9,5-5c1.7-0.9,3.4-1.8,5-2.8c2.2-1.3,4.2-2.8,5.9-4.8
				c1.8-2,4.1-3.5,6.2-5.2c0.7-0.6,1.7-1,2.3-1.7c0.4-0.4,0.7-1.2,0.6-1.6c-0.2-0.5-0.9-0.9-1.4-1.1c-2.2-0.7-4.1-0.1-5.9,1.2
				c-1.2,0.8-2.3,1.7-3.4,2.6c-0.4,0.3-0.8,0.6-1.2,0.7c-0.6,0.1-1.2,0.2-1.8,0c-0.2-0.1-0.4-0.9-0.3-1.3c0.5-4,1.5-7.8,3.2-11.5
				c1.4-3,2.6-6.2,3.8-9.3c0.4-1,0.7-2.1,0.8-3.2c0.1-0.9-0.7-1.9-1.6-2.1c-0.9-0.2-1.6,0.1-2,0.9c-0.5,1-1,2-1.4,3
				c-1.2,3-2.2,6-3.4,8.9c-0.3,0.9-0.9,1.7-1.4,2.5c-0.1,0.2-0.7,0.4-0.8,0.4c-0.3-0.3-0.5-0.7-0.6-1.1c-0.1-0.5,0.1-0.9,0.2-1.4
				c1.2-4.6,2.4-9.3,3.6-13.9c0.2-0.6,0.2-1.3,0.2-1.9c0-0.9-0.7-1.3-1.5-1.7c-0.9-0.4-1.7,0-2.1,0.6c-0.6,0.9-0.9,2-1.2,3.1
				c-1.2,4.5-2.4,8.9-3.6,13.4c-0.2,0.6-0.4,1.1-1.2,1.6c-0.1-0.8-0.3-1.7-0.2-2.4c0.5-3.5,1-6.9,1.5-10.4c0.1-0.9,0.3-1.9,0.3-2.8
				c0-0.9-1-1.9-1.9-1.8c-0.7,0.1-1.5,0.6-1.9,1.1c-0.4,0.6-0.5,1.5-0.7,2.2c-0.7,4.6-1.4,9.1-2.2,13.7c-0.1,0.5-0.7,0.9-1.1,1.3
				c-0.4-0.5-1-1-1-1.5c-0.1-1.9-0.1-3.8,0-5.7c0-1.3,0.2-2.5,0.2-3.8c0-0.8-0.5-1.7-1.4-1.6c-0.7,0.1-1.6,0.7-1.8,1.2
				c-0.5,1.3-0.8,2.8-0.9,4.2c-0.2,2.9-0.3,5.8-0.2,8.6c0.1,2.7-0.2,5.4-0.7,8.1c-0.5,2.5-0.6,5.1-0.7,7.6
				c-0.1,3.7-0.8,7.3-2.7,10.6c-0.2,0.3-0.7,0.8-0.9,0.7c-0.4-0.1-0.8-0.5-0.9-0.9c-1.8-4.2-2.7-8.6-2.9-13
				c-0.3-6.4-0.3-12.8-0.1-19.2c0.1-4.3,1.2-8.5,2.7-12.6c3.2-8.6,10.1-14.5,20.9-14.6c3.2,0,6.4,0.1,9.5,1
				c4.9,1.4,8.6,4.3,10.7,8.9c1.2,2.6,2.2,5.4,2.7,8.2c1.9,11.1,2.1,22.3-0.5,33.3c-0.7,2.8-1.7,5.5-3,8c-3.1,6.2-8.3,9.7-15.1,10.5
				c-3.8,0.5-7.6,0-11.5-0.1C987,200.1,986.5,199.7,985.6,199.3z"/>
			<path class="st10" d="M1740.7,113.5c-0.4-0.6-0.7-1.1-0.9-1.7c-0.3-0.9-0.2-1.8,0.6-2.5c0.7-0.5,2-0.4,2.6,0.2
				c0.6,0.7,0.5,1.5,0,2.1C1742.4,112.2,1741.7,112.6,1740.7,113.5z"/>
			<path class="st11" d="M1741.5,226.1c-1.2,0.1-2.2-1-1.9-2.1c0.1-0.3,0.1-0.6,0.3-0.9c0.6-1.3,1.6-2,2.5-1.8
				c0.8,0.2,1.5,1.2,1.4,2.2C1743.7,225,1742.8,226,1741.5,226.1z"/>
			<path class="st12" d="M1021.6,107.5c-0.3,0,0.2,0,0.7,0c0.9,0.2,1.6,1.4,1.1,2.2c-0.5,0.7-1.3,1.4-2,1.8
				c-0.9,0.5-1.9,0.2-2.6-0.6c-0.7-0.8-0.8-1.7-0.4-2.6c0.4-0.8,1.2-1,2-0.8C1020.5,107.6,1020.7,107.5,1021.6,107.5z"/>
			<path class="st13" d="M1019,222.5c0.5,0.2,1.1,0.4,1.6,0.7c1.1,0.6,1.5,1.4,1.1,2.3c-0.4,1-1.7,1.5-2.8,1
				c-1.3-0.5-1.8-2.5-0.8-3.6C1018.3,222.7,1018.6,222.6,1019,222.5z"/>
		</g>
	</g>
</g>
<g id="text">
	<g id="text_1_">
		<rect x="1071.8" y="131.1" class="st14" width="651.4" height="93.3"/>
		<path d="M1105.6,131.4c3.5,0.4,5.2,2,5.2,4.6c0.1,0.6,0.1,1.7,0.1,3.1c-0.4,2.8-1.2,5-2.4,6.6c-2.1,2.4-4,3.6-5.8,3.6h-1.1
			c-2.4,0-4-1.9-4.9-5.8v-0.6c0-5.6,2.2-9.4,6.6-11.2C1104.1,131.6,1104.8,131.4,1105.6,131.4z M1100,142.5v0.3
			c0.2,2.1,0.9,3.2,2,3.2h0.7c1.4,0,2.9-1.5,4.6-4.6c0.6-1.4,0.9-3,0.9-4.7c0-1.5-0.6-2.3-1.7-2.3h-1.3c-1.4,0-2.8,1.2-4.3,3.6
			C1100.2,139.8,1100,141.3,1100,142.5z"/>
		<path d="M1114.8,131.5c1.1,0,1.9,0.8,2.2,2.5c-0.6,4.6-0.9,7.4-0.9,8.4c0.2,2.2,0.7,3.3,1.6,3.3c2.4,0,3.6-3.9,3.6-11.6
			c0-1.6,0.4-2.5,1.3-2.5h0.6c1.1,0,1.8,0.9,2,2.6c0,7.9-1.3,12.5-3.9,13.9c-0.9,0.8-1.9,1.2-3,1.3h-1.3c-2.8,0-4.4-2.9-4.8-8.8
			c0.3-6.1,1-9.1,1.9-9.1H1114.8z"/>
		<path d="M1133.6,131.4h1.4c2,0,3.5,1.3,4.4,3.8v0.3c0,2.6-2.1,4.9-6.4,6.8v0.3c3.9,2.2,6,3.5,6.2,4c0.1,0.2,0.1,0.4,0.1,0.6v0.4
			c0,0.3-0.5,0.5-1.4,0.7c-2,0-4.5-1.4-7.7-4.3v2.7c0,1.7-0.7,2.6-2.1,2.6c-0.1,0-0.5-0.2-1-0.6c-0.2-4.8-0.3-7.5-0.3-8.2
			c0.1-1.4,0.1-2.6,0.1-3.6c0.1,0,0.1,0,0.1-0.1c-0.5-0.3-0.7-0.6-0.7-1c0-1.4,1.6-2.7,4.7-3.8
			C1131.9,131.6,1132.7,131.4,1133.6,131.4z M1130,136l0.1,0.3v4c4-1.7,6-3.3,6-4.7v-0.1c-0.3-0.6-0.9-0.8-1.7-0.8h-0.1
			C1132.6,134.6,1131.1,135,1130,136z"/>
		<path d="M1149.5,131.4c1.7,1.2,3.2,3.4,4.7,6.7c0.1,0.2,0.1,0.3,0.1,0.4h0.3c0.9-2.5,2.1-4.5,3.6-6h0.6c1.2,0,1.8,0.7,1.8,2.1
			c0,2.4,0,5.9,0.1,10.4c0,0.9,0,1.7,0,2.3c-0.1,1.4-0.7,2.1-1.8,2.1c-1.2,0-1.8-1.3-1.7-3.8l-0.1-1.6c0-0.5,0-1.2,0.1-2v-0.1l0-1.1
			c-0.7,2.4-1.5,3.5-2.2,3.5h-0.1c-1.2,0-2.3-1.3-3.4-4c-0.2,0-0.4-0.4-0.6-1.1h-0.3v0.1c0,6.7-0.2,10-0.6,10l-1,0.1h-0.4
			c-1.1,0-1.7-1.4-1.7-4.1c0-9,0.5-13.6,1.6-13.6L1149.5,131.4z"/>
		<path d="M1167.1,131.5c4.9,0,7.4,0.5,7.4,1.4v0.7c0,0.7-0.5,1.2-1.4,1.3h-1.6c-1.8,0-3.4-0.1-4.7-0.4c-0.2,0.3-0.4,1.8-0.6,4.6
			c1.8-0.3,3.4-0.4,4.8-0.4h0.3c0.8,0,1.3,0.5,1.6,1.4c0,1.2-1.6,1.9-4.8,1.9h-2.3v0.1c-0.2,1.8-0.3,3-0.3,3.6h0.1
			c2.9-0.9,4.4-1.3,4.7-1.3l1.3-0.1c1,0.3,1.4,0.8,1.4,1.6c0,1.5-2.6,2.7-7.8,3.6h-0.1c-1.6,0-2.7-1-3.3-3v-2
			c0.8-8.2,2-12.2,3.6-12.2L1167.1,131.5z"/>
		<path d="M1183.9,131.5h0.1c2.8,0.3,4.2,1.6,4.2,3.7c-0.2,1.4-0.8,2.2-1.6,2.2c-0.9,0-1.5-0.9-1.7-2.6l-0.7-0.1h-0.1
			c-1.3,0-2.7,1.8-4.2,5.3c-0.2,0.4-0.3,1.1-0.3,2c0.2,2.3,0.8,3.5,1.7,3.5h0.4c1.8-0.7,3-1,3.5-1c0.7,0,1.2,0.5,1.4,1.4
			c0,1.6-1.7,2.7-5,3.5c-3.2,0-5.1-2.4-5.8-7.2v-0.7c0-1.7,1.2-4.2,3.5-7.3C1180.8,132.3,1182.4,131.5,1183.9,131.5z"/>
		<path d="M1199.8,131.4c1,0.3,1.6,1.2,1.6,2.5c-0.5,7.3-0.7,12-0.7,14l0.1,0.3c0,0.8-0.8,1.3-2.4,1.3c-0.8,0-1.4-0.8-1.5-2.5
			c0-1.1,0-2.3-0.1-3.7h-3.1c-0.2,0-0.3,0.1-0.3,0.3v4.1c-0.2,1.2-0.7,1.8-1.6,1.8h-0.4c-1.2,0-1.8-1.1-1.8-3.2
			c0-4.5,0.3-8.9,1-13.1c0.7-0.5,1.3-0.7,1.8-0.7c0.9,0,1.4,0.8,1.6,2.3c-0.2,3.1-0.3,4.9-0.3,5.3v0.4c2.2-0.2,3.2-0.4,3.2-0.4
			c0.5-5.4,1.1-8.2,1.8-8.2C1198.7,131.6,1199,131.5,1199.8,131.4z"/>
		<path d="M1216.2,131.4h0.7c2.1,0,3.5,1,4.1,3c0.2,0.3,0.3,0.6,0.3,0.8v0.4c-0.1,1.7-1.1,3.5-2.8,5.2c-2.3,1.6-4.4,2.4-6.2,2.4
			c-0.2-0.1-0.3-0.1-0.4-0.1c0.1,2,0.1,3.5,0.1,4.5v0.1c0,1-0.4,1.6-1.3,1.6c-1.2,0-1.8-1-1.8-3c-0.1-0.3-0.1-1.3-0.1-3v-0.3
			c0-6.4,0.5-9.7,1.4-9.7c0.3,0,0.9-0.3,1.9-1C1213.4,131.8,1214.8,131.4,1216.2,131.4z M1211.7,136.1c0.1,1.8,0.1,3.2,0.1,4.4v0.4
			l4.4-2.3c1.3-1.3,2-2.5,2-3.4c-0.2-0.7-0.6-1-1.3-1h-0.4C1214.4,134.3,1212.8,134.9,1211.7,136.1z"/>
		<path d="M1225.4,131.4c1.4,0,2.3,1.1,2.5,3.4c0,2.1-0.6,5.7-1.7,10.9l1.4,1.6v0.1c0,1-0.8,1.7-2.5,2c-1.7,0-2.5-1.1-2.5-3.4
			c1.1-6.7,1.7-10.3,1.7-10.9l-0.7-2.3C1223.9,131.9,1224.5,131.4,1225.4,131.4z"/>
		<path d="M1232.5,131.4h0.5c0.7,0.4,1,1,1,1.8c-0.8,7.8-1.2,12-1.2,12.4c2.3-0.2,4.1-0.3,5.4-0.3h1.8c1.1,0.1,1.7,0.6,1.7,1.4v0.3
			c-0.4,1.5-1.1,2.2-2.1,2.2c-1.6-0.4-3.6-0.5-6.2-0.5c-0.3,0-1.2,0.1-2.6,0.2c-0.8,0-1.3-0.6-1.7-1.8c0.7-7.9,1.3-12.6,1.8-14.2
			c-0.1-0.2-0.1-0.3-0.1-0.6v-0.1C1231.2,131.7,1231.8,131.4,1232.5,131.4z"/>
		<path d="M1252,131.4c3.5,0.4,5.2,2,5.2,4.6c0.1,0.6,0.1,1.7,0.1,3.1c-0.4,2.8-1.2,5-2.4,6.6c-2.1,2.4-4,3.6-5.8,3.6h-1.1
			c-2.4,0-4-1.9-4.9-5.8v-0.6c0-5.6,2.2-9.4,6.6-11.2C1250.5,131.6,1251.2,131.4,1252,131.4z M1246.4,142.5v0.3
			c0.2,2.1,0.9,3.2,2,3.2h0.7c1.4,0,2.9-1.5,4.6-4.6c0.6-1.4,0.9-3,0.9-4.7c0-1.5-0.6-2.3-1.7-2.3h-1.3c-1.4,0-2.8,1.2-4.3,3.6
			C1246.6,139.8,1246.4,141.3,1246.4,142.5z"/>
		<path d="M1260.2,131.5h1.6c6.9,0.4,10.4,1,10.4,1.6l0.3,0.9c-0.2,1.1-0.7,1.6-1.6,1.6c-0.5,0-2.1-0.1-4.5-0.3
			c0.2,5,0.3,9.1,0.3,12.3c0,1.2-0.5,1.7-1.6,1.7h-0.4c-0.8,0-1.2-0.5-1.2-1.6v-8.9c0-0.8,0-1.8-0.1-3.1c0.1-0.2,0.1-0.4,0.1-0.7
			c-0.2-0.1-0.9-0.2-2.2-0.3c-0.7,0.1-1.2,0.1-1.6,0.1c-0.7,0-1-0.3-1-1v-0.9C1258.6,132.1,1259.1,131.7,1260.2,131.5z"/>
		<path d="M1280.3,131.5c1.8,0,3.1,0.8,3.6,2.4c0.2,0.5,0.3,0.9,0.3,1.1c-0.2,1.4-0.7,2.1-1.5,2.1s-1.5-0.8-1.8-2.4h-1
			c-1.4,0-2.2,0.6-2.4,1.8c0.2,0.9,1.8,2.3,4.6,4.2c1.8,1.8,2.7,3.2,2.7,4.1c0,2.6-1.7,4.1-5.2,4.6h-1.3c-2.1,0-3.6-1.4-4.6-4.3
			v-0.3c0.2-1,0.7-1.6,1.4-1.6c0.5,0,1,0.7,1.4,2c0.7,0.7,1.5,1.1,2.2,1.1c1-0.1,1.9-0.4,2.7-0.8v-0.7c-1-1.3-2.8-2.8-5.5-4.6
			c-1.1-1.3-1.7-2.6-1.7-3.9v-0.1c0-2.4,1.8-3.9,5.5-4.6H1280.3z"/>
		<path d="M1297.8,131.5h0.7c1.2,0,2.2,2.4,3,7.2l2.7,9.9c-0.3,0.9-0.9,1.3-1.7,1.3h-0.2c-1.3,0-2.3-2.2-3-6.6l-1.5-0.1h-0.3
			c-1.1,0-1.6,0.2-1.6,0.7c0,2.9-0.6,4.4-1.7,4.7h-0.3c-1.2-0.1-1.9-0.6-1.9-1.4c0.4-4.1,1.1-7.7,2.2-10.9
			C1295.3,133,1296.5,131.5,1297.8,131.5z M1297.8,136.6c-0.7,2.1-1,3.3-1,3.6v0.1c1.2-0.3,1.7-0.5,1.7-0.6l-0.6-3.2H1297.8z"/>
		<path d="M1312.6,131.4h1.4c2,0,3.5,1.3,4.4,3.8v0.3c0,2.6-2.1,4.9-6.4,6.8v0.3c3.9,2.2,6,3.5,6.2,4c0.1,0.2,0.1,0.4,0.1,0.6v0.4
			c0,0.3-0.5,0.5-1.4,0.7c-2,0-4.5-1.4-7.7-4.3v2.7c0,1.7-0.7,2.6-2.1,2.6c-0.1,0-0.5-0.2-1-0.6c-0.2-4.8-0.3-7.5-0.3-8.2
			c0.1-1.4,0.1-2.6,0.1-3.6c0.1,0,0.1,0,0.1-0.1c-0.5-0.3-0.7-0.6-0.7-1c0-1.4,1.6-2.7,4.7-3.8
			C1311,131.6,1311.8,131.4,1312.6,131.4z M1309.1,136l0.1,0.3v4c4-1.7,6-3.3,6-4.7v-0.1c-0.3-0.6-0.9-0.8-1.7-0.8h-0.1
			C1311.6,134.6,1310.2,135,1309.1,136z"/>
		<path d="M1325,131.5c4.9,0,7.4,0.5,7.4,1.4v0.7c0,0.7-0.5,1.2-1.4,1.3h-1.6c-1.8,0-3.4-0.1-4.7-0.4c-0.2,0.3-0.4,1.8-0.6,4.6
			c1.8-0.3,3.4-0.4,4.8-0.4h0.3c0.8,0,1.3,0.5,1.6,1.4c0,1.2-1.6,1.9-4.8,1.9h-2.3v0.1c-0.2,1.8-0.3,3-0.3,3.6h0.1
			c2.9-0.9,4.4-1.3,4.7-1.3l1.3-0.1c1,0.3,1.4,0.8,1.4,1.6c0,1.5-2.6,2.7-7.8,3.6h-0.1c-1.6,0-2.7-1-3.3-3v-2
			c0.8-8.2,2-12.2,3.6-12.2L1325,131.5z"/>
		<path d="M1345.3,131.5h0.7c1.2,0,2.2,2.4,3,7.2l2.7,9.9c-0.3,0.9-0.9,1.3-1.7,1.3h-0.2c-1.3,0-2.3-2.2-3-6.6l-1.5-0.1h-0.3
			c-1.1,0-1.6,0.2-1.6,0.7c0,2.9-0.6,4.4-1.7,4.7h-0.3c-1.2-0.1-1.9-0.6-1.9-1.4c0.4-4.1,1.1-7.7,2.2-10.9
			C1342.9,133,1344,131.5,1345.3,131.5z M1345.3,136.6c-0.7,2.1-1,3.3-1,3.6v0.1c1.2-0.3,1.7-0.5,1.7-0.6l-0.6-3.2H1345.3z"/>
		<path d="M1351.2,131.5h1.6c6.9,0.4,10.4,1,10.4,1.6l0.3,0.9c-0.2,1.1-0.7,1.6-1.6,1.6c-0.5,0-2.1-0.1-4.5-0.3
			c0.2,5,0.3,9.1,0.3,12.3c0,1.2-0.5,1.7-1.6,1.7h-0.4c-0.8,0-1.2-0.5-1.2-1.6v-8.9c0-0.8,0-1.8-0.1-3.1c0.1-0.2,0.1-0.4,0.1-0.7
			c-0.2-0.1-0.9-0.2-2.2-0.3c-0.7,0.1-1.2,0.1-1.6,0.1c-0.7,0-1-0.3-1-1v-0.9C1349.6,132.1,1350.2,131.7,1351.2,131.5z"/>
		<path d="M1372.5,131.5h1.6c6.9,0.4,10.4,1,10.4,1.6l0.3,0.9c-0.2,1.1-0.7,1.6-1.6,1.6c-0.5,0-2.1-0.1-4.5-0.3
			c0.2,5,0.3,9.1,0.3,12.3c0,1.2-0.5,1.7-1.6,1.7h-0.4c-0.8,0-1.2-0.5-1.2-1.6v-8.9c0-0.8,0-1.8-0.1-3.1c0.1-0.2,0.1-0.4,0.1-0.7
			c-0.2-0.1-0.9-0.2-2.2-0.3c-0.7,0.1-1.2,0.1-1.6,0.1c-0.7,0-1-0.3-1-1v-0.9C1370.9,132.1,1371.4,131.7,1372.5,131.5z"/>
		<path d="M1396.4,131.4c1,0.3,1.6,1.2,1.6,2.5c-0.5,7.3-0.7,12-0.7,14l0.1,0.3c0,0.8-0.8,1.3-2.4,1.3c-0.8,0-1.4-0.8-1.5-2.5
			c0-1.1,0-2.3-0.1-3.7h-3.1c-0.2,0-0.3,0.1-0.3,0.3v4.1c-0.2,1.2-0.7,1.8-1.6,1.8h-0.4c-1.2,0-1.8-1.1-1.8-3.2
			c0-4.5,0.3-8.9,1-13.1c0.7-0.5,1.3-0.7,1.8-0.7c0.9,0,1.4,0.8,1.6,2.3c-0.2,3.1-0.3,4.9-0.3,5.3v0.4c2.2-0.2,3.2-0.4,3.2-0.4
			c0.5-5.4,1.1-8.2,1.8-8.2C1395.2,131.6,1395.6,131.5,1396.4,131.4z"/>
		<path d="M1404.5,131.5c4.9,0,7.4,0.5,7.4,1.4v0.7c0,0.7-0.5,1.2-1.4,1.3h-1.6c-1.8,0-3.4-0.1-4.7-0.4c-0.2,0.3-0.4,1.8-0.6,4.6
			c1.8-0.3,3.4-0.4,4.8-0.4h0.3c0.8,0,1.3,0.5,1.6,1.4c0,1.2-1.6,1.9-4.8,1.9h-2.3v0.1c-0.2,1.8-0.3,3-0.3,3.6h0.1
			c2.9-0.9,4.4-1.3,4.7-1.3l1.3-0.1c1,0.3,1.4,0.8,1.4,1.6c0,1.5-2.6,2.7-7.8,3.6h-0.1c-1.6,0-2.7-1-3.3-3v-2
			c0.8-8.2,2-12.2,3.6-12.2L1404.5,131.5z"/>
		<path d="M1426.3,131.4h1.4c2,0,3.5,1.3,4.4,3.8v0.3c0,2.6-2.1,4.9-6.4,6.8v0.3c3.9,2.2,6,3.5,6.2,4c0.1,0.2,0.1,0.4,0.1,0.6v0.4
			c0,0.3-0.5,0.5-1.4,0.7c-2,0-4.5-1.4-7.7-4.3v2.7c0,1.7-0.7,2.6-2.1,2.6c-0.1,0-0.5-0.2-1-0.6c-0.2-4.8-0.3-7.5-0.3-8.2
			c0.1-1.4,0.1-2.6,0.1-3.6c0.1,0,0.1,0,0.1-0.1c-0.5-0.3-0.7-0.6-0.7-1c0-1.4,1.6-2.7,4.7-3.8
			C1424.7,131.6,1425.5,131.4,1426.3,131.4z M1422.7,136l0.1,0.3v4c4-1.7,6-3.3,6-4.7v-0.1c-0.3-0.6-0.9-0.8-1.7-0.8h-0.1
			C1425.3,134.6,1423.9,135,1422.7,136z"/>
		<path d="M1438.7,131.5c4.9,0,7.4,0.5,7.4,1.4v0.7c0,0.7-0.5,1.2-1.4,1.3h-1.6c-1.8,0-3.4-0.1-4.7-0.4c-0.2,0.3-0.4,1.8-0.6,4.6
			c1.8-0.3,3.4-0.4,4.8-0.4h0.3c0.8,0,1.3,0.5,1.6,1.4c0,1.2-1.6,1.9-4.8,1.9h-2.3v0.1c-0.2,1.8-0.3,3-0.3,3.6h0.1
			c2.9-0.9,4.4-1.3,4.7-1.3l1.3-0.1c1,0.3,1.4,0.8,1.4,1.6c0,1.5-2.6,2.7-7.8,3.6h-0.1c-1.6,0-2.7-1-3.3-3v-2
			c0.8-8.2,2-12.2,3.6-12.2L1438.7,131.5z"/>
		<path d="M1452.9,131.5h0.7c1.2,0,2.2,2.4,3,7.2l2.7,9.9c-0.3,0.9-0.9,1.3-1.7,1.3h-0.2c-1.3,0-2.3-2.2-3-6.6l-1.5-0.1h-0.3
			c-1.1,0-1.6,0.2-1.6,0.7c0,2.9-0.6,4.4-1.7,4.7h-0.3c-1.2-0.1-1.9-0.6-1.9-1.4c0.4-4.1,1.1-7.7,2.2-10.9
			C1450.5,133,1451.6,131.5,1452.9,131.5z M1452.9,136.6c-0.7,2.1-1,3.3-1,3.6v0.1c1.2-0.3,1.7-0.5,1.7-0.6l-0.6-3.2H1452.9z"/>
		<path d="M1465.8,131.4c2.2,0.1,4.2,1.2,6.1,3.5c0.9,1.4,1.4,3,1.4,4.5c-0.1,4.5-2.4,7.6-6.9,9.5c-0.4,0.1-0.7,0.1-1.1,0.1h-0.7
			l-0.8-0.1c-0.3,0.2-0.6,0.3-0.9,0.3h-0.6c-0.8,0-1.3-0.6-1.6-1.8c0.3-1.1,0.8-5,1.2-11.9c-0.5-0.2-0.8-0.6-0.8-1.3
			c0.6-1.6,1.5-2.4,2.7-2.4C1463.8,131.7,1464.4,131.6,1465.8,131.4z M1465.5,135.7v0.4c0,0.2,0,0.4,0,0.6l0,0.3
			c0,0.2,0,0.7-0.1,1.3c-0.2,2.5-0.4,4.9-0.6,7.2c1.9,0,3.5-1.4,4.6-4.1c0.1-0.7,0.2-1.2,0.2-1.7v-0.4c0.1-2.3-0.9-3.6-3.3-4
			C1465.8,135.4,1465.5,135.5,1465.5,135.7z"/>
		<path d="M1486.3,131.5c1,0.2,1.6,0.7,1.6,1.4c0,0.7-2.3,4.1-6.8,10.2c-1.2,1.7-1.8,3.6-1.8,5.5c-0.6,0.6-1,0.8-1.4,0.8h-0.4
			c-1.1,0-1.9-0.9-2.3-2.7c0-0.9,1.1-3,3.3-6.2c-1-0.2-2.2-2.5-3.8-6.8c0-1,0.7-1.7,2.1-2c0.7,0,1.8,2.1,3.4,6.2l0.3,0.1
			c2.7-3.6,4.6-5.8,5.7-6.6H1486.3z"/>
		<path d="M1490.2,145.1h0.4c0.9,0,1.5,1,1.8,3c-0.1,0.8-0.5,1.2-1.2,1.2c-1.4-0.5-2-1.3-2-2.5v-0.5
			C1489.1,145.5,1489.5,145.1,1490.2,145.1z M1493.5,131.6c1.5,0.5,2.3,1.5,2.3,3c0,0.2-0.6,1.5-1.9,3.7l-1.2,6.1l-0.3,0.1h-0.3
			c-1.3-0.3-1.9-1.4-1.9-3.3v-0.4C1490.7,134.7,1491.8,131.6,1493.5,131.6z"/>
		<path d="M1507.7,131.4h0.6c3,0.7,4.5,2.1,4.5,4.1v0.8c0,0.8-0.4,1.7-1.3,2.8v0.1c2.3,1.2,3.5,2.6,3.5,4.4v0.6c0,2-1.5,3.5-4.6,4.5
			l-3.2,0.6h-0.8c-1.9-0.4-2.8-1.4-2.8-2.8c0-0.4-0.1-2.1-0.3-5.1c0-6.4,0.6-9.6,1.7-9.6l0.3-0.1c0.5,0.1,0.9,0.1,1.1,0.1
			C1506.8,131.6,1507.2,131.4,1507.7,131.4z M1506.6,134.4v4.2c2.1-0.8,3.1-1.7,3.1-2.7c0-0.8-0.7-1.4-2-1.6H1506.6z M1506.6,142
			l0.3,3.8c-0.1,0-0.1,0-0.1,0.1l0.3,0.1h0.7c2.8-0.3,4.2-1,4.2-2.1c0-1.1-1-2-3.1-2.7C1507.9,141.5,1507.1,141.7,1506.6,142z"/>
		<path d="M1518.9,131.5c1.1,0,1.9,0.8,2.2,2.5c-0.6,4.6-0.9,7.4-0.9,8.4c0.2,2.2,0.7,3.3,1.6,3.3c2.4,0,3.6-3.9,3.6-11.6
			c0-1.6,0.4-2.5,1.3-2.5h0.6c1.1,0,1.8,0.9,2,2.6c0,7.9-1.3,12.5-3.9,13.9c-0.9,0.8-1.9,1.2-3,1.3h-1.3c-2.8,0-4.4-2.9-4.8-8.8
			c0.3-6.1,1-9.1,1.9-9.1H1518.9z"/>
		<path d="M1532.2,131.5h1.6c6.9,0.4,10.4,1,10.4,1.6l0.3,0.9c-0.2,1.1-0.7,1.6-1.6,1.6c-0.5,0-2.1-0.1-4.5-0.3
			c0.2,5,0.3,9.1,0.3,12.3c0,1.2-0.5,1.7-1.6,1.7h-0.4c-0.8,0-1.2-0.5-1.2-1.6v-8.9c0-0.8,0-1.8-0.1-3.1c0.1-0.2,0.1-0.4,0.1-0.7
			c-0.2-0.1-0.9-0.2-2.2-0.3c-0.7,0.1-1.2,0.1-1.6,0.1c-0.7,0-1-0.3-1-1v-0.9C1530.6,132.1,1531.1,131.7,1532.2,131.5z"/>
		<path d="M1556.3,131.4h0.6c3,0.7,4.5,2.1,4.5,4.1v0.8c0,0.8-0.4,1.7-1.3,2.8v0.1c2.3,1.2,3.5,2.6,3.5,4.4v0.6c0,2-1.5,3.5-4.6,4.5
			l-3.2,0.6h-0.8c-1.9-0.4-2.8-1.4-2.8-2.8c0-0.4-0.1-2.1-0.3-5.1c0-6.4,0.6-9.6,1.7-9.6l0.3-0.1c0.5,0.1,0.9,0.1,1.1,0.1
			C1555.4,131.6,1555.9,131.4,1556.3,131.4z M1555.2,134.4v4.2c2.1-0.8,3.1-1.7,3.1-2.7c0-0.8-0.7-1.4-2-1.6H1555.2z M1555.2,142
			l0.3,3.8c-0.1,0-0.1,0-0.1,0.1l0.3,0.1h0.7c2.8-0.3,4.2-1,4.2-2.1c0-1.1-1-2-3.1-2.7C1556.6,141.5,1555.8,141.7,1555.2,142z"/>
		<path d="M1570.2,131.5c4.9,0,7.4,0.5,7.4,1.4v0.7c0,0.7-0.5,1.2-1.4,1.3h-1.6c-1.8,0-3.4-0.1-4.7-0.4c-0.2,0.3-0.4,1.8-0.6,4.6
			c1.8-0.3,3.4-0.4,4.8-0.4h0.3c0.8,0,1.3,0.5,1.6,1.4c0,1.2-1.6,1.9-4.8,1.9h-2.3v0.1c-0.2,1.8-0.3,3-0.3,3.6h0.1
			c2.9-0.9,4.4-1.3,4.7-1.3l1.3-0.1c1,0.3,1.4,0.8,1.4,1.6c0,1.5-2.6,2.7-7.8,3.6h-0.1c-1.6,0-2.7-1-3.3-3v-2
			c0.8-8.2,2-12.2,3.6-12.2L1570.2,131.5z"/>
		<path d="M1589,131.5c1.7,0.2,2.6,0.7,2.6,1.7c0,1.1-0.9,1.6-2.6,1.6c-4.4,0.2-6.6,0.5-6.6,1v2.4l-0.1,0.7c1.2-0.2,2.4-0.3,3.4-0.3
			h0.3c1.3,0.1,2,0.7,2,1.9c0,0.9-0.7,1.4-2,1.6h-3.6v0.7l-0.1,0.9c0,0.1,0,0.2,0.1,0.2c0,0.1,0,0.2-0.1,0.4c0.1,1.2,0.1,2.2,0.1,3
			v0.7c0,0.8-0.6,1.3-1.7,1.6c-1.1,0-1.7-1.2-1.7-3.7c0-0.8,0-1.4-0.1-1.9l0.1-0.3c0-0.2,0-0.7-0.1-1.7c0-0.9,0.2-3.2,0.6-6.8
			c-0.2,0-0.4-0.3-0.4-1c0-1.5,3.3-2.3,9.9-2.6H1589z"/>
		<path d="M1600.6,131.4c3.5,0.4,5.2,2,5.2,4.6c0.1,0.6,0.1,1.7,0.1,3.1c-0.4,2.8-1.2,5-2.4,6.6c-2.1,2.4-4,3.6-5.8,3.6h-1.1
			c-2.4,0-4-1.9-4.9-5.8v-0.6c0-5.6,2.2-9.4,6.6-11.2C1599.1,131.6,1599.8,131.4,1600.6,131.4z M1595,142.5v0.3
			c0.2,2.1,0.9,3.2,2,3.2h0.7c1.4,0,2.9-1.5,4.6-4.6c0.6-1.4,0.9-3,0.9-4.7c0-1.5-0.6-2.3-1.7-2.3h-1.3c-1.4,0-2.8,1.2-4.3,3.6
			C1595.2,139.8,1595,141.3,1595,142.5z"/>
		<path d="M1614.3,131.4h1.4c2,0,3.5,1.3,4.4,3.8v0.3c0,2.6-2.1,4.9-6.4,6.8v0.3c3.9,2.2,6,3.5,6.2,4c0.1,0.2,0.1,0.4,0.1,0.6v0.4
			c0,0.3-0.5,0.5-1.4,0.7c-2,0-4.5-1.4-7.7-4.3v2.7c0,1.7-0.7,2.6-2.1,2.6c-0.1,0-0.5-0.2-1-0.6c-0.2-4.8-0.3-7.5-0.3-8.2
			c0.1-1.4,0.1-2.6,0.1-3.6c0.1,0,0.1,0,0.1-0.1c-0.5-0.3-0.7-0.6-0.7-1c0-1.4,1.6-2.7,4.7-3.8
			C1612.6,131.6,1613.4,131.4,1614.3,131.4z M1610.7,136l0.1,0.3v4c4-1.7,6-3.3,6-4.7v-0.1c-0.3-0.6-0.9-0.8-1.7-0.8h-0.1
			C1613.2,134.6,1611.8,135,1610.7,136z"/>
		<path d="M1626.6,131.5c4.9,0,7.4,0.5,7.4,1.4v0.7c0,0.7-0.5,1.2-1.4,1.3h-1.6c-1.8,0-3.4-0.1-4.7-0.4c-0.2,0.3-0.4,1.8-0.6,4.6
			c1.8-0.3,3.4-0.4,4.8-0.4h0.3c0.8,0,1.3,0.5,1.6,1.4c0,1.2-1.6,1.9-4.8,1.9h-2.3v0.1c-0.2,1.8-0.3,3-0.3,3.6h0.1
			c2.9-0.9,4.4-1.3,4.7-1.3l1.3-0.1c1,0.3,1.4,0.8,1.4,1.6c0,1.5-2.6,2.7-7.8,3.6h-0.1c-1.6,0-2.7-1-3.3-3v-2
			c0.8-8.2,2-12.2,3.6-12.2L1626.6,131.5z"/>
		<path d="M1643,131.5h1.6c6.9,0.4,10.4,1,10.4,1.6l0.3,0.9c-0.2,1.1-0.7,1.6-1.6,1.6c-0.5,0-2.1-0.1-4.5-0.3
			c0.2,5,0.3,9.1,0.3,12.3c0,1.2-0.5,1.7-1.6,1.7h-0.4c-0.8,0-1.2-0.5-1.2-1.6v-8.9c0-0.8,0-1.8-0.1-3.1c0.1-0.2,0.1-0.4,0.1-0.7
			c-0.2-0.1-0.9-0.2-2.2-0.3c-0.7,0.1-1.2,0.1-1.6,0.1c-0.7,0-1-0.3-1-1v-0.9C1641.4,132.1,1641.9,131.7,1643,131.5z"/>
		<path d="M1666.8,131.4c1,0.3,1.6,1.2,1.6,2.5c-0.5,7.3-0.7,12-0.7,14l0.1,0.3c0,0.8-0.8,1.3-2.4,1.3c-0.8,0-1.4-0.8-1.5-2.5
			c0-1.1,0-2.3-0.1-3.7h-3.1c-0.2,0-0.3,0.1-0.3,0.3v4.1c-0.2,1.2-0.7,1.8-1.6,1.8h-0.4c-1.2,0-1.8-1.1-1.8-3.2
			c0-4.5,0.3-8.9,1-13.1c0.7-0.5,1.3-0.7,1.8-0.7c0.9,0,1.4,0.8,1.6,2.3c-0.2,3.1-0.3,4.9-0.3,5.3v0.4c2.2-0.2,3.2-0.4,3.2-0.4
			c0.5-5.4,1.1-8.2,1.8-8.2C1665.7,131.6,1666.1,131.5,1666.8,131.4z"/>
		<path d="M1674.9,131.5c4.9,0,7.4,0.5,7.4,1.4v0.7c0,0.7-0.5,1.2-1.4,1.3h-1.6c-1.8,0-3.4-0.1-4.7-0.4c-0.2,0.3-0.4,1.8-0.6,4.6
			c1.8-0.3,3.4-0.4,4.8-0.4h0.3c0.8,0,1.3,0.5,1.6,1.4c0,1.2-1.6,1.9-4.8,1.9h-2.3v0.1c-0.2,1.8-0.3,3-0.3,3.6h0.1
			c2.9-0.9,4.4-1.3,4.7-1.3l1.3-0.1c1,0.3,1.4,0.8,1.4,1.6c0,1.5-2.6,2.7-7.8,3.6h-0.1c-1.6,0-2.7-1-3.3-3v-2
			c0.8-8.2,2-12.2,3.6-12.2L1674.9,131.5z"/>
		<path d="M1695.3,131.5c1,0.2,1.6,0.7,1.6,1.4c0,0.7-2.3,4.1-6.8,10.2c-1.2,1.7-1.8,3.6-1.8,5.5c-0.6,0.6-1,0.8-1.4,0.8h-0.4
			c-1.1,0-1.9-0.9-2.3-2.7c0-0.9,1.1-3,3.3-6.2c-1-0.2-2.2-2.5-3.8-6.8c0-1,0.7-1.7,2.1-2c0.7,0,1.8,2.1,3.4,6.2l0.3,0.1
			c2.7-3.6,4.6-5.8,5.7-6.6H1695.3z"/>
		<path d="M1113.5,161.4h0.5c0.7,0.4,1,1,1,1.8c-0.8,7.8-1.2,12-1.2,12.4c2.3-0.2,4.1-0.3,5.4-0.3h1.8c1.1,0.1,1.7,0.6,1.7,1.4v0.3
			c-0.4,1.5-1.1,2.2-2.1,2.2c-1.6-0.4-3.6-0.5-6.2-0.5c-0.3,0-1.2,0.1-2.6,0.2c-0.8,0-1.3-0.6-1.7-1.8c0.7-7.9,1.3-12.6,1.8-14.2
			c-0.1-0.2-0.1-0.3-0.1-0.6v-0.1C1112.2,161.7,1112.8,161.4,1113.5,161.4z"/>
		<path d="M1129.6,161.5h0.7c1.2,0,2.2,2.4,3,7.2l2.7,9.9c-0.3,0.9-0.9,1.3-1.7,1.3h-0.2c-1.3,0-2.3-2.2-3-6.6l-1.5-0.1h-0.3
			c-1.1,0-1.6,0.2-1.6,0.7c0,2.9-0.6,4.4-1.7,4.7h-0.3c-1.2-0.1-1.9-0.6-1.9-1.4c0.4-4.1,1.1-7.7,2.2-10.9
			C1127.2,163,1128.4,161.5,1129.6,161.5z M1129.6,166.6c-0.7,2.1-1,3.3-1,3.6v0.1c1.2-0.3,1.7-0.5,1.7-0.6l-0.6-3.2H1129.6z"/>
		<path d="M1140,161.5c1.1,0,1.9,0.8,2.2,2.5c-0.6,4.6-0.9,7.4-0.9,8.4c0.2,2.2,0.7,3.3,1.6,3.3c2.4,0,3.6-3.9,3.6-11.6
			c0-1.6,0.4-2.5,1.3-2.5h0.6c1.1,0,1.8,0.9,2,2.6c0,7.9-1.3,12.5-3.9,13.9c-0.9,0.8-1.9,1.2-3,1.3h-1.3c-2.8,0-4.4-2.9-4.8-8.8
			c0.3-6.1,1-9.1,1.9-9.1H1140z"/>
		<path d="M1163.9,161.4h0.6c0.6,0.3,0.9,0.8,0.9,1.3v0.3c0.3,5.4,0.4,8.7,0.4,9.8v3.6c0,1.3-0.5,2.3-1.6,2.8
			c-0.2,0.1-0.4,0.1-0.6,0.1c-1.2,0-3.9-3.6-8.2-10.9h-0.1c0,0.2,0,0.3-0.1,0.3l0.1,0.3v2.8c0,4.5-0.3,6.7-1,6.7
			c-0.5,0.1-0.9,0.1-1.2,0.1c-1,0-1.5-2.4-1.5-7.3c0-6,0.2-9.2,0.7-9.6l1.3-0.1c1.2,0,2.8,2,4.9,6l3.5,5.1h0.1
			c-0.2-1.6-0.3-2.8-0.3-3.6c0.1-3.4,0.1-5.5,0.1-6.4C1162.2,162.2,1162.8,161.8,1163.9,161.4z"/>
		<path d="M1175.2,161.5h0.1c2.8,0.3,4.2,1.6,4.2,3.7c-0.2,1.4-0.8,2.2-1.6,2.2c-0.9,0-1.5-0.9-1.7-2.6l-0.7-0.1h-0.1
			c-1.3,0-2.7,1.8-4.2,5.3c-0.2,0.4-0.3,1.1-0.3,2c0.2,2.3,0.8,3.5,1.7,3.5h0.4c1.8-0.7,3-1,3.5-1c0.7,0,1.2,0.5,1.4,1.4
			c0,1.6-1.7,2.7-5,3.5c-3.2,0-5.1-2.4-5.8-7.2v-0.7c0-1.7,1.2-4.2,3.5-7.3C1172.1,162.3,1173.7,161.5,1175.2,161.5z"/>
		<path d="M1191.1,161.4c1,0.3,1.6,1.2,1.6,2.5c-0.5,7.3-0.7,12-0.7,14l0.1,0.3c0,0.8-0.8,1.3-2.4,1.3c-0.8,0-1.4-0.8-1.5-2.5
			c0-1.1,0-2.3-0.1-3.7h-3.1c-0.2,0-0.3,0.1-0.3,0.3v4.1c-0.2,1.2-0.7,1.8-1.6,1.8h-0.4c-1.2,0-1.8-1.1-1.8-3.2
			c0-4.5,0.3-8.9,1-13.1c0.7-0.5,1.3-0.7,1.8-0.7c0.9,0,1.4,0.8,1.6,2.3c-0.2,3.1-0.3,4.9-0.3,5.3v0.4c2.2-0.2,3.2-0.4,3.2-0.4
			c0.5-5.4,1.1-8.2,1.8-8.2C1190,161.6,1190.3,161.5,1191.1,161.4z"/>
		<path d="M1196.2,176.1c1.2,0.2,1.8,0.7,1.8,1.5v0.2c0,0.4-1,2.1-3.1,5.2h-0.5c-0.3-0.1-0.5-0.4-0.5-1v-0.3c0-0.4,0.4-1.2,1.2-2.3
			c-0.8,0.1-1.2,0-1.2-0.5v-0.3C1193.9,177.5,1194.7,176.7,1196.2,176.1z"/>
		<path d="M1218.8,161.5c0.7,0,1.1,1.4,1.1,4.2c-0.3,8.7-0.7,13.1-1.2,13.1c-0.5,0.5-1.1,0.7-1.7,0.7h-0.6c-1.3-0.9-2.6-2.9-3.9-6
			h-0.1c-2.2,3.7-3.6,5.5-4.3,5.6c-1.3,0-2.2-0.7-2.6-2.1l-0.1-1.4V173c0-0.3,0.1-2.3,0.4-5.8c-0.1-1.4-0.1-2.3-0.1-2.8
			c0-0.6,0.6-1,1.7-1.2c1.1,0,1.7,1.3,1.7,3.9c-0.2,4-0.3,6.3-0.3,6.8c0.3-0.2,1.2-1.9,2.6-4.9c0.5-0.5,1.1-0.7,1.7-0.7h0.4
			c0.5,0,1.6,2,3.1,6h0.1v-0.1c0.1-4.1,0.1-7.3,0.1-9.6v-0.8C1216.7,162.2,1217.4,161.5,1218.8,161.5z"/>
		<path d="M1226.5,161.5c4.9,0,7.4,0.5,7.4,1.4v0.7c0,0.7-0.5,1.2-1.4,1.3h-1.6c-1.8,0-3.4-0.1-4.7-0.4c-0.2,0.3-0.4,1.8-0.6,4.6
			c1.8-0.3,3.4-0.4,4.8-0.4h0.3c0.8,0,1.3,0.5,1.6,1.4c0,1.2-1.6,1.9-4.8,1.9h-2.3v0.1c-0.2,1.8-0.3,3-0.3,3.6h0.1
			c2.9-0.9,4.4-1.3,4.7-1.3l1.3-0.1c1,0.3,1.4,0.8,1.4,1.6c0,1.5-2.6,2.7-7.8,3.6h-0.1c-1.6,0-2.7-1-3.3-3v-2
			c0.8-8.2,2-12.2,3.6-12.2L1226.5,161.5z"/>
		<path d="M1253.5,161.4h0.6c0.6,0.3,0.9,0.8,0.9,1.3v0.3c0.3,5.4,0.4,8.7,0.4,9.8v3.6c0,1.3-0.5,2.3-1.6,2.8
			c-0.2,0.1-0.4,0.1-0.6,0.1c-1.2,0-3.9-3.6-8.2-10.9h-0.1c0,0.2,0,0.3-0.1,0.3l0.1,0.3v2.8c0,4.5-0.3,6.7-1,6.7
			c-0.5,0.1-0.9,0.1-1.2,0.1c-1,0-1.5-2.4-1.5-7.3c0-6,0.2-9.2,0.7-9.6l1.3-0.1c1.2,0,2.8,2,4.9,6l3.5,5.1h0.1
			c-0.2-1.6-0.3-2.8-0.3-3.6c0.1-3.4,0.1-5.5,0.1-6.4C1251.7,162.2,1252.3,161.8,1253.5,161.4z"/>
		<path d="M1261.9,161.5c4.9,0,7.4,0.5,7.4,1.4v0.7c0,0.7-0.5,1.2-1.4,1.3h-1.6c-1.8,0-3.4-0.1-4.7-0.4c-0.2,0.3-0.4,1.8-0.6,4.6
			c1.8-0.3,3.4-0.4,4.8-0.4h0.3c0.8,0,1.3,0.5,1.6,1.4c0,1.2-1.6,1.9-4.8,1.9h-2.3v0.1c-0.2,1.8-0.3,3-0.3,3.6h0.1
			c2.9-0.9,4.4-1.3,4.7-1.3l1.3-0.1c1,0.3,1.4,0.8,1.4,1.6c0,1.5-2.6,2.7-7.8,3.6h-0.1c-1.6,0-2.7-1-3.3-3v-2
			c0.8-8.2,2-12.2,3.6-12.2L1261.9,161.5z"/>
		<path d="M1275.9,161.5c4.9,0,7.4,0.5,7.4,1.4v0.7c0,0.7-0.5,1.2-1.4,1.3h-1.6c-1.8,0-3.4-0.1-4.7-0.4c-0.2,0.3-0.4,1.8-0.6,4.6
			c1.8-0.3,3.4-0.4,4.8-0.4h0.3c0.8,0,1.3,0.5,1.6,1.4c0,1.2-1.6,1.9-4.8,1.9h-2.3v0.1c-0.2,1.8-0.3,3-0.3,3.6h0.1
			c2.9-0.9,4.4-1.3,4.7-1.3l1.3-0.1c1,0.3,1.4,0.8,1.4,1.6c0,1.5-2.6,2.7-7.8,3.6h-0.1c-1.6,0-2.7-1-3.3-3v-2
			c0.8-8.2,2-12.2,3.6-12.2L1275.9,161.5z"/>
		<path d="M1289.6,161.4c2.2,0.1,4.2,1.2,6.1,3.5c0.9,1.4,1.4,3,1.4,4.5c-0.1,4.5-2.4,7.6-6.9,9.5c-0.4,0.1-0.7,0.1-1.1,0.1h-0.7
			l-0.8-0.1c-0.3,0.2-0.6,0.3-0.9,0.3h-0.6c-0.8,0-1.3-0.6-1.6-1.8c0.3-1.1,0.8-5,1.2-11.9c-0.5-0.2-0.8-0.6-0.8-1.3
			c0.6-1.6,1.5-2.4,2.7-2.4C1287.6,161.7,1288.3,161.6,1289.6,161.4z M1289.3,165.7v0.4c0,0.2,0,0.4,0,0.6l0,0.3
			c0,0.2,0,0.7-0.1,1.3c-0.2,2.5-0.4,4.9-0.6,7.2c1.9,0,3.5-1.4,4.6-4.1c0.1-0.7,0.2-1.2,0.2-1.7v-0.4c0.1-2.3-0.9-3.6-3.3-4
			C1289.6,165.4,1289.3,165.5,1289.3,165.7z"/>
		<path d="M1306.1,161.5h1.6c6.9,0.4,10.4,1,10.4,1.6l0.3,0.9c-0.2,1.1-0.7,1.6-1.6,1.6c-0.5,0-2.1-0.1-4.5-0.3
			c0.2,5,0.3,9.1,0.3,12.3c0,1.2-0.5,1.7-1.6,1.7h-0.4c-0.8,0-1.2-0.5-1.2-1.6v-8.9c0-0.8,0-1.8-0.1-3.1c0.1-0.2,0.1-0.4,0.1-0.7
			c-0.2-0.1-0.9-0.2-2.2-0.3c-0.7,0.1-1.2,0.1-1.6,0.1c-0.7,0-1-0.3-1-1v-0.9C1304.5,162.1,1305,161.7,1306.1,161.5z"/>
		<path d="M1328.6,161.4c3.5,0.4,5.2,2,5.2,4.6c0.1,0.6,0.1,1.7,0.1,3.1c-0.4,2.8-1.2,5-2.4,6.6c-2.1,2.4-4,3.6-5.8,3.6h-1.1
			c-2.4,0-4-1.9-4.9-5.8v-0.6c0-5.6,2.2-9.4,6.6-11.2C1327.1,161.6,1327.9,161.4,1328.6,161.4z M1323,172.5v0.3
			c0.2,2.1,0.9,3.2,2,3.2h0.7c1.4,0,2.9-1.5,4.6-4.6c0.6-1.4,0.9-3,0.9-4.7c0-1.5-0.6-2.3-1.7-2.3h-1.3c-1.4,0-2.8,1.2-4.3,3.6
			C1323.3,169.8,1323,171.3,1323,172.5z"/>
		<path d="M1349.4,161.5h0.1c2.8,0.3,4.2,1.6,4.2,3.7c-0.2,1.4-0.8,2.2-1.6,2.2c-0.9,0-1.5-0.9-1.7-2.6l-0.7-0.1h-0.1
			c-1.3,0-2.7,1.8-4.2,5.3c-0.2,0.4-0.3,1.1-0.3,2c0.2,2.3,0.8,3.5,1.7,3.5h0.4c1.8-0.7,3-1,3.5-1c0.7,0,1.2,0.5,1.4,1.4
			c0,1.6-1.7,2.7-5,3.5c-3.2,0-5.1-2.4-5.8-7.2v-0.7c0-1.7,1.2-4.2,3.5-7.3C1346.3,162.3,1347.8,161.5,1349.4,161.5z"/>
		<path d="M1363.9,161.4c3.5,0.4,5.2,2,5.2,4.6c0.1,0.6,0.1,1.7,0.1,3.1c-0.4,2.8-1.2,5-2.4,6.6c-2.1,2.4-4,3.6-5.8,3.6h-1.1
			c-2.4,0-4-1.9-4.9-5.8v-0.6c0-5.6,2.2-9.4,6.6-11.2C1362.4,161.6,1363.2,161.4,1363.9,161.4z M1358.3,172.5v0.3
			c0.2,2.1,0.9,3.2,2,3.2h0.7c1.4,0,2.9-1.5,4.6-4.6c0.6-1.4,0.9-3,0.9-4.7c0-1.5-0.6-2.3-1.7-2.3h-1.3c-1.4,0-2.8,1.2-4.3,3.6
			C1358.6,169.8,1358.3,171.3,1358.3,172.5z"/>
		<path d="M1382.7,161.4h0.6c0.6,0.3,0.9,0.8,0.9,1.3v0.3c0.3,5.4,0.4,8.7,0.4,9.8v3.6c0,1.3-0.5,2.3-1.6,2.8
			c-0.2,0.1-0.4,0.1-0.6,0.1c-1.2,0-3.9-3.6-8.2-10.9h-0.1c0,0.2,0,0.3-0.1,0.3l0.1,0.3v2.8c0,4.5-0.3,6.7-1,6.7
			c-0.5,0.1-0.9,0.1-1.2,0.1c-1,0-1.5-2.4-1.5-7.3c0-6,0.2-9.2,0.7-9.6l1.3-0.1c1.2,0,2.8,2,4.9,6l3.5,5.1h0.1
			c-0.2-1.6-0.3-2.8-0.3-3.6c0.1-3.4,0.1-5.5,0.1-6.4C1381,162.2,1381.6,161.8,1382.7,161.4z"/>
		<path d="M1392.5,161.5c1.8,0,3.1,0.8,3.6,2.4c0.2,0.5,0.3,0.9,0.3,1.1c-0.2,1.4-0.7,2.1-1.5,2.1s-1.5-0.8-1.8-2.4h-1
			c-1.4,0-2.2,0.6-2.4,1.8c0.2,0.9,1.8,2.3,4.6,4.2c1.8,1.8,2.7,3.2,2.7,4.1c0,2.6-1.7,4.1-5.2,4.6h-1.3c-2.1,0-3.6-1.4-4.6-4.3
			v-0.3c0.2-1,0.7-1.6,1.4-1.6c0.5,0,1,0.7,1.4,2c0.7,0.7,1.5,1.1,2.2,1.1c1-0.1,1.9-0.4,2.7-0.8v-0.7c-1-1.3-2.8-2.8-5.5-4.6
			c-1.1-1.3-1.7-2.6-1.7-3.9v-0.1c0-2.4,1.8-3.9,5.5-4.6H1392.5z"/>
		<path d="M1399.9,161.5h1.6c6.9,0.4,10.4,1,10.4,1.6l0.3,0.9c-0.2,1.1-0.7,1.6-1.6,1.6c-0.5,0-2.1-0.1-4.5-0.3
			c0.2,5,0.3,9.1,0.3,12.3c0,1.2-0.5,1.7-1.6,1.7h-0.4c-0.8,0-1.2-0.5-1.2-1.6v-8.9c0-0.8,0-1.8-0.1-3.1c0.1-0.2,0.1-0.4,0.1-0.7
			c-0.2-0.1-0.9-0.2-2.2-0.3c-0.7,0.1-1.2,0.1-1.6,0.1c-0.7,0-1-0.3-1-1v-0.9C1398.3,162.1,1398.8,161.7,1399.9,161.5z"/>
		<path d="M1420.5,161.4h1.4c2,0,3.5,1.3,4.4,3.8v0.3c0,2.6-2.1,4.9-6.4,6.8v0.3c3.9,2.2,6,3.5,6.2,4c0.1,0.2,0.1,0.4,0.1,0.6v0.4
			c0,0.3-0.5,0.5-1.4,0.7c-2,0-4.5-1.4-7.7-4.3v2.7c0,1.7-0.7,2.6-2.1,2.6c-0.1,0-0.5-0.2-1-0.6c-0.2-4.8-0.3-7.5-0.3-8.2
			c0.1-1.4,0.1-2.6,0.1-3.6c0.1,0,0.1,0,0.1-0.1c-0.5-0.3-0.7-0.6-0.7-1c0-1.4,1.6-2.7,4.7-3.8
			C1418.9,161.6,1419.7,161.4,1420.5,161.4z M1417,166l0.1,0.3v4c4-1.7,6-3.3,6-4.7v-0.1c-0.3-0.6-0.9-0.8-1.7-0.8h-0.1
			C1419.5,164.6,1418.1,165,1417,166z"/>
		<path d="M1430.2,161.5c1.1,0,1.9,0.8,2.2,2.5c-0.6,4.6-0.9,7.4-0.9,8.4c0.2,2.2,0.7,3.3,1.6,3.3c2.4,0,3.6-3.9,3.6-11.6
			c0-1.6,0.4-2.5,1.3-2.5h0.6c1.1,0,1.8,0.9,2,2.6c0,7.9-1.3,12.5-3.9,13.9c-0.9,0.8-1.9,1.2-3,1.3h-1.3c-2.8,0-4.4-2.9-4.8-8.8
			c0.3-6.1,1-9.1,1.9-9.1H1430.2z"/>
		<path d="M1450,161.5h0.1c2.8,0.3,4.2,1.6,4.2,3.7c-0.2,1.4-0.8,2.2-1.6,2.2c-0.9,0-1.5-0.9-1.7-2.6l-0.7-0.1h-0.1
			c-1.3,0-2.7,1.8-4.2,5.3c-0.2,0.4-0.3,1.1-0.3,2c0.2,2.3,0.8,3.5,1.7,3.5h0.4c1.8-0.7,3-1,3.5-1c0.7,0,1.2,0.5,1.4,1.4
			c0,1.6-1.7,2.7-5,3.5c-3.2,0-5.1-2.4-5.8-7.2v-0.7c0-1.7,1.2-4.2,3.5-7.3C1447,162.3,1448.5,161.5,1450,161.5z"/>
		<path d="M1457.2,161.5h1.6c6.9,0.4,10.4,1,10.4,1.6l0.3,0.9c-0.2,1.1-0.7,1.6-1.6,1.6c-0.5,0-2.1-0.1-4.5-0.3
			c0.2,5,0.3,9.1,0.3,12.3c0,1.2-0.5,1.7-1.6,1.7h-0.4c-0.8,0-1.2-0.5-1.2-1.6v-8.9c0-0.8,0-1.8-0.1-3.1c0.1-0.2,0.1-0.4,0.1-0.7
			c-0.2-0.1-0.9-0.2-2.2-0.3c-0.7,0.1-1.2,0.1-1.6,0.1c-0.7,0-1-0.3-1-1v-0.9C1455.6,162.1,1456.2,161.7,1457.2,161.5z"/>
		<path d="M1478.5,161.5h1.6c6.9,0.4,10.4,1,10.4,1.6l0.3,0.9c-0.2,1.1-0.7,1.6-1.6,1.6c-0.5,0-2.1-0.1-4.5-0.3
			c0.2,5,0.3,9.1,0.3,12.3c0,1.2-0.5,1.7-1.6,1.7h-0.4c-0.8,0-1.2-0.5-1.2-1.6v-8.9c0-0.8,0-1.8-0.1-3.1c0.1-0.2,0.1-0.4,0.1-0.7
			c-0.2-0.1-0.9-0.2-2.2-0.3c-0.7,0.1-1.2,0.1-1.6,0.1c-0.7,0-1-0.3-1-1v-0.9C1476.9,162.1,1477.4,161.7,1478.5,161.5z"/>
		<path d="M1502.4,161.4c1,0.3,1.6,1.2,1.6,2.5c-0.5,7.3-0.7,12-0.7,14l0.1,0.3c0,0.8-0.8,1.3-2.4,1.3c-0.8,0-1.4-0.8-1.5-2.5
			c0-1.1,0-2.3-0.1-3.7h-3.1c-0.2,0-0.3,0.1-0.3,0.3v4.1c-0.2,1.2-0.7,1.8-1.6,1.8h-0.4c-1.2,0-1.8-1.1-1.8-3.2
			c0-4.5,0.3-8.9,1-13.1c0.7-0.5,1.3-0.7,1.8-0.7c0.9,0,1.4,0.8,1.6,2.3c-0.2,3.1-0.3,4.9-0.3,5.3v0.4c2.2-0.2,3.2-0.4,3.2-0.4
			c0.5-5.4,1.1-8.2,1.8-8.2C1501.2,161.6,1501.6,161.5,1502.4,161.4z"/>
		<path d="M1510.4,161.5c4.9,0,7.4,0.5,7.4,1.4v0.7c0,0.7-0.5,1.2-1.4,1.3h-1.6c-1.8,0-3.4-0.1-4.7-0.4c-0.2,0.3-0.4,1.8-0.6,4.6
			c1.8-0.3,3.4-0.4,4.8-0.4h0.3c0.8,0,1.3,0.5,1.6,1.4c0,1.2-1.6,1.9-4.8,1.9h-2.3v0.1c-0.2,1.8-0.3,3-0.3,3.6h0.1
			c2.9-0.9,4.4-1.3,4.7-1.3l1.3-0.1c1,0.3,1.4,0.8,1.4,1.6c0,1.5-2.6,2.7-7.8,3.6h-0.1c-1.6,0-2.7-1-3.3-3v-2
			c0.8-8.2,2-12.2,3.6-12.2L1510.4,161.5z"/>
		<path d="M1531.8,161.5c1.8,0,3.1,0.8,3.6,2.4c0.2,0.5,0.3,0.9,0.3,1.1c-0.2,1.4-0.7,2.1-1.5,2.1s-1.5-0.8-1.8-2.4h-1
			c-1.4,0-2.2,0.6-2.4,1.8c0.2,0.9,1.8,2.3,4.6,4.2c1.8,1.8,2.7,3.2,2.7,4.1c0,2.6-1.7,4.1-5.2,4.6h-1.3c-2.1,0-3.6-1.4-4.6-4.3
			v-0.3c0.2-1,0.7-1.6,1.4-1.6c0.5,0,1,0.7,1.4,2c0.7,0.7,1.5,1.1,2.2,1.1c1-0.1,1.9-0.4,2.7-0.8v-0.7c-1-1.3-2.8-2.8-5.5-4.6
			c-1.1-1.3-1.7-2.6-1.7-3.9v-0.1c0-2.4,1.8-3.9,5.5-4.6H1531.8z"/>
		<path d="M1540.4,161.4c1.4,0,2.3,1.1,2.5,3.4c0,2.1-0.6,5.7-1.7,10.9l1.4,1.6v0.1c0,1-0.8,1.7-2.5,2c-1.7,0-2.5-1.1-2.5-3.4
			c1.1-6.7,1.7-10.3,1.7-10.9l-0.7-2.3C1538.9,161.9,1539.5,161.4,1540.4,161.4z"/>
		<path d="M1546.9,161.4c1.7,1.2,3.2,3.4,4.7,6.7c0.1,0.2,0.1,0.3,0.1,0.4h0.3c0.9-2.5,2.1-4.5,3.6-6h0.6c1.2,0,1.8,0.7,1.8,2.1
			c0,2.4,0,5.9,0.1,10.4c0,0.9,0,1.7,0,2.3c-0.1,1.4-0.7,2.1-1.8,2.1c-1.2,0-1.8-1.3-1.7-3.8l-0.1-1.6c0-0.5,0-1.2,0.1-2v-0.1l0-1.1
			c-0.7,2.4-1.5,3.5-2.2,3.5h-0.1c-1.2,0-2.3-1.3-3.4-4c-0.2,0-0.4-0.4-0.6-1.1h-0.3v0.1c0,6.7-0.2,10-0.6,10l-1,0.1h-0.4
			c-1.1,0-1.7-1.4-1.7-4.1c0-9,0.5-13.6,1.6-13.6L1546.9,161.4z"/>
		<path d="M1566.8,161.4h0.7c2.1,0,3.5,1,4.1,3c0.2,0.3,0.3,0.6,0.3,0.8v0.4c-0.1,1.7-1.1,3.5-2.8,5.2c-2.3,1.6-4.4,2.4-6.2,2.4
			c-0.2-0.1-0.3-0.1-0.4-0.1c0.1,2,0.1,3.5,0.1,4.5v0.1c0,1-0.4,1.6-1.3,1.6c-1.2,0-1.8-1-1.8-3c-0.1-0.3-0.1-1.3-0.1-3v-0.3
			c0-6.4,0.5-9.7,1.4-9.7c0.3,0,0.9-0.3,1.9-1C1564,161.8,1565.4,161.4,1566.8,161.4z M1562.3,166.1c0.1,1.8,0.1,3.2,0.1,4.4v0.4
			l4.4-2.3c1.3-1.3,2-2.5,2-3.4c-0.2-0.7-0.6-1-1.3-1h-0.4C1565,164.3,1563.4,164.9,1562.3,166.1z"/>
		<path d="M1576.6,161.4h0.5c0.7,0.4,1,1,1,1.8c-0.8,7.8-1.2,12-1.2,12.4c2.3-0.2,4.1-0.3,5.4-0.3h1.8c1.1,0.1,1.7,0.6,1.7,1.4v0.3
			c-0.4,1.5-1.1,2.2-2.1,2.2c-1.6-0.4-3.6-0.5-6.2-0.5c-0.3,0-1.2,0.1-2.6,0.2c-0.8,0-1.3-0.6-1.7-1.8c0.7-7.9,1.3-12.6,1.8-14.2
			c-0.1-0.2-0.1-0.3-0.1-0.6v-0.1C1575.2,161.7,1575.8,161.4,1576.6,161.4z"/>
		<path d="M1592.3,161.5c4.9,0,7.4,0.5,7.4,1.4v0.7c0,0.7-0.5,1.2-1.4,1.3h-1.6c-1.8,0-3.4-0.1-4.7-0.4c-0.2,0.3-0.4,1.8-0.6,4.6
			c1.8-0.3,3.4-0.4,4.8-0.4h0.3c0.8,0,1.3,0.5,1.6,1.4c0,1.2-1.6,1.9-4.8,1.9h-2.3v0.1c-0.2,1.8-0.3,3-0.3,3.6h0.1
			c2.9-0.9,4.4-1.3,4.7-1.3l1.3-0.1c1,0.3,1.4,0.8,1.4,1.6c0,1.5-2.6,2.7-7.8,3.6h-0.1c-1.6,0-2.7-1-3.3-3v-2
			c0.8-8.2,2-12.2,3.6-12.2L1592.3,161.5z"/>
		<path d="M1603.7,161.4c1.7,1.2,3.2,3.4,4.7,6.7c0.1,0.2,0.1,0.3,0.1,0.4h0.3c0.9-2.5,2.1-4.5,3.6-6h0.6c1.2,0,1.8,0.7,1.8,2.1
			c0,2.4,0,5.9,0.1,10.4c0,0.9,0,1.7,0,2.3c-0.1,1.4-0.7,2.1-1.8,2.1c-1.2,0-1.8-1.3-1.7-3.8l-0.1-1.6c0-0.5,0-1.2,0.1-2v-0.1l0-1.1
			c-0.7,2.4-1.5,3.5-2.2,3.5h-0.1c-1.2,0-2.3-1.3-3.4-4c-0.2,0-0.4-0.4-0.6-1.1h-0.3v0.1c0,6.7-0.2,10-0.6,10l-1,0.1h-0.4
			c-1.1,0-1.7-1.4-1.7-4.1c0-9,0.5-13.6,1.6-13.6L1603.7,161.4z"/>
		<path d="M1621.4,161.5c4.9,0,7.4,0.5,7.4,1.4v0.7c0,0.7-0.5,1.2-1.4,1.3h-1.6c-1.8,0-3.4-0.1-4.7-0.4c-0.2,0.3-0.4,1.8-0.6,4.6
			c1.8-0.3,3.4-0.4,4.8-0.4h0.3c0.8,0,1.3,0.5,1.6,1.4c0,1.2-1.6,1.9-4.8,1.9h-2.3v0.1c-0.2,1.8-0.3,3-0.3,3.6h0.1
			c2.9-0.9,4.4-1.3,4.7-1.3l1.3-0.1c1,0.3,1.4,0.8,1.4,1.6c0,1.5-2.6,2.7-7.8,3.6h-0.1c-1.6,0-2.7-1-3.3-3v-2
			c0.8-8.2,2-12.2,3.6-12.2L1621.4,161.5z"/>
		<path d="M1638.1,161.5h0.1c2.8,0.3,4.2,1.6,4.2,3.7c-0.2,1.4-0.8,2.2-1.6,2.2c-0.9,0-1.5-0.9-1.7-2.6l-0.7-0.1h-0.1
			c-1.3,0-2.7,1.8-4.2,5.3c-0.2,0.4-0.3,1.1-0.3,2c0.2,2.3,0.8,3.5,1.7,3.5h0.4c1.8-0.7,3-1,3.5-1c0.7,0,1.2,0.5,1.4,1.4
			c0,1.6-1.7,2.7-5,3.5c-3.2,0-5.1-2.4-5.8-7.2v-0.7c0-1.7,1.2-4.2,3.5-7.3C1635.1,162.3,1636.6,161.5,1638.1,161.5z"/>
		<path d="M1654,161.4c1,0.3,1.6,1.2,1.6,2.5c-0.5,7.3-0.7,12-0.7,14l0.1,0.3c0,0.8-0.8,1.3-2.4,1.3c-0.8,0-1.4-0.8-1.5-2.5
			c0-1.1,0-2.3-0.1-3.7h-3.1c-0.2,0-0.3,0.1-0.3,0.3v4.1c-0.2,1.2-0.7,1.8-1.6,1.8h-0.4c-1.2,0-1.8-1.1-1.8-3.2
			c0-4.5,0.3-8.9,1-13.1c0.7-0.5,1.3-0.7,1.8-0.7c0.9,0,1.4,0.8,1.6,2.3c-0.2,3.1-0.3,4.9-0.3,5.3v0.4c2.2-0.2,3.2-0.4,3.2-0.4
			c0.5-5.4,1.1-8.2,1.8-8.2C1652.9,161.6,1653.3,161.5,1654,161.4z"/>
		<path d="M1673.4,161.4c1.1,0.1,1.7,0.5,1.7,1.3c0,0.5-1.4,3.1-4.3,7.8c0,0.8,1.6,3.1,4.6,6.8v0.3c-0.9,1.2-1.6,1.8-2.1,1.8
			c-1.1-0.2-2.6-1.8-4.8-5c-1.3,3.2-2.4,4.7-3.5,4.7c-1.3,0-2-0.5-2-1.4c0.1-1.1,1.1-3.4,3.1-6.9v-0.1l-3.1-6.4l-0.1-0.7
			c0-0.8,0.6-1.3,1.7-1.4h0.4c0.5,0.2,1.1,1,1.7,2.4c0.9,1.4,1.5,2.2,1.8,2.5h0.1c2.2-3.7,3.8-5.6,4.6-5.6
			C1673.3,161.4,1673.3,161.4,1673.4,161.4z"/>
		<path d="M1677.8,175.1h0.4c0.9,0,1.5,1,1.8,3c-0.1,0.8-0.5,1.2-1.2,1.2c-1.4-0.5-2-1.3-2-2.5v-0.5
			C1676.7,175.5,1677,175.1,1677.8,175.1z M1681,161.6c1.5,0.5,2.3,1.5,2.3,3c0,0.2-0.6,1.5-1.9,3.7l-1.2,6.1l-0.3,0.1h-0.3
			c-1.3-0.3-1.9-1.4-1.9-3.3v-0.4C1678.2,164.7,1679.3,161.6,1681,161.6z"/>
		<path d="M1140,191.4c2.2,0.1,4.2,1.2,6.1,3.5c0.9,1.4,1.4,3,1.4,4.5c-0.1,4.5-2.4,7.6-6.9,9.5c-0.4,0.1-0.7,0.1-1.1,0.1h-0.7
			l-0.8-0.1c-0.3,0.2-0.6,0.3-0.9,0.3h-0.6c-0.8,0-1.3-0.6-1.6-1.8c0.3-1.1,0.8-5,1.2-11.9c-0.5-0.2-0.8-0.6-0.8-1.3
			c0.6-1.6,1.5-2.4,2.7-2.4C1138,191.7,1138.7,191.6,1140,191.4z M1139.7,195.7v0.4c0,0.2,0,0.4,0,0.6l0,0.3c0,0.2,0,0.7-0.1,1.3
			c-0.2,2.5-0.4,4.9-0.6,7.2c1.9,0,3.5-1.4,4.6-4.1c0.1-0.7,0.2-1.2,0.2-1.7v-0.4c0.1-2.3-0.9-3.6-3.3-4
			C1140,195.4,1139.7,195.5,1139.7,195.7z"/>
		<path d="M1155.9,191.4h1.4c2,0,3.5,1.3,4.4,3.8v0.3c0,2.6-2.1,4.9-6.4,6.8v0.3c3.9,2.2,6,3.5,6.2,4c0.1,0.2,0.1,0.4,0.1,0.6v0.4
			c0,0.3-0.5,0.5-1.4,0.7c-2,0-4.5-1.4-7.7-4.3v2.7c0,1.7-0.7,2.6-2.1,2.6c-0.1,0-0.5-0.2-1-0.6c-0.2-4.8-0.3-7.5-0.3-8.2
			c0.1-1.4,0.1-2.6,0.1-3.6c0.1,0,0.1,0,0.1-0.1c-0.5-0.3-0.7-0.6-0.7-1c0-1.4,1.6-2.7,4.7-3.8
			C1154.2,191.6,1155.1,191.4,1155.9,191.4z M1152.3,196l0.1,0.3v4c4-1.7,6-3.3,6-4.7v-0.1c-0.3-0.6-0.9-0.8-1.7-0.8h-0.1
			C1154.9,194.6,1153.4,195,1152.3,196z"/>
		<path d="M1168.6,191.5h0.7c1.2,0,2.2,2.4,3,7.2l2.7,9.9c-0.3,0.9-0.9,1.3-1.7,1.3h-0.2c-1.3,0-2.3-2.2-3-6.6l-1.5-0.1h-0.3
			c-1.1,0-1.6,0.2-1.6,0.7c0,2.9-0.6,4.4-1.7,4.7h-0.3c-1.2-0.1-1.9-0.6-1.9-1.4c0.4-4.1,1.1-7.7,2.2-10.9
			C1166.1,193,1167.3,191.5,1168.6,191.5z M1168.6,196.6c-0.7,2.1-1,3.3-1,3.6v0.1c1.2-0.3,1.7-0.5,1.7-0.6l-0.6-3.2H1168.6z"/>
		<path d="M1185.2,191.4h0.4c2.2,0.8,3.4,2.1,3.4,4.1c0,1.7-0.6,2.7-1.8,2.9h-0.1c-0.8-0.1-1.3-0.5-1.3-1.3c0.1-1.2,0.1-1.8,0.1-1.8
			c-0.2-0.5-0.4-0.7-0.8-0.7c-1.8,0.7-3.4,2.9-4.9,6.5c-0.3,0.8-0.4,1.5-0.4,2.1v1c0,1,0.5,1.7,1.6,1.8h0.1c1.1,0,2.2-0.9,3.4-2.7
			h-0.1c-0.8,0.1-1.4,0.1-1.8,0.1c-0.9-0.1-1.4-0.5-1.4-1.3c0-0.8,1.5-1.5,4.5-2.1c1.7,0,2.5,1.4,2.5,4.1v2.9c0,0.8-0.4,1.5-1.1,2
			h-0.7c-0.8-0.1-1.3-0.5-1.3-1.1h-0.1c-1.3,0.9-2.5,1.4-3.7,1.4h-0.6c-2,0-3.4-1.3-4.3-3.9c-0.2-0.7-0.3-1.3-0.3-1.7
			c0-3.3,1.8-6.9,5.3-10.8C1183.3,192,1184.5,191.4,1185.2,191.4z"/>
		<path d="M1203.1,191.6c2.5,0.3,3.7,1.4,3.7,3.3c0,1.7-1.3,3.4-3.9,5.1v0.2c1,1.3,1.6,2,1.6,2.3h0.2c1.5-2.1,2.6-3.2,3.3-3.2
			c0.7,0.3,1.1,0.7,1.1,1.2c0,1-0.8,2.4-2.3,4.4c0,0.1,0.6,1.1,1.9,3.1v0.2c-0.2,1-0.7,1.6-1.6,1.6c-0.7,0-1.5-0.9-2.5-2.8
			c-1.7,1.5-3.5,2.3-5.2,2.3h-0.2c-1.6,0-2.6-1-2.8-3c-0.1,0-0.2-0.3-0.2-0.9c0-2.6,1.1-4.7,3.2-6.5c-0.2-0.5-0.4-1.4-0.5-2.8
			c0.3-3,1.6-4.6,4-4.6H1203.1z M1199.6,205.4l0.9,0.4c0.9-0.4,1.6-0.9,2.1-1.6c-0.3-0.6-0.8-1.2-1.4-1.7
			C1200.6,202.9,1200.1,203.9,1199.6,205.4z M1201.5,195.3v0.3c0,0.8,0.2,1.2,0.4,1.2c0.3,0,1-0.6,2.1-1.9v-0.4
			c0-0.2-0.3-0.5-0.9-0.7C1202.5,194,1202,194.5,1201.5,195.3z"/>
		<path d="M1221.6,191.4c2.2,0.1,4.2,1.2,6.1,3.5c0.9,1.4,1.4,3,1.4,4.5c-0.1,4.5-2.4,7.6-6.9,9.5c-0.4,0.1-0.7,0.1-1.1,0.1h-0.7
			l-0.8-0.1c-0.3,0.2-0.6,0.3-0.9,0.3h-0.6c-0.8,0-1.3-0.6-1.6-1.8c0.3-1.1,0.8-5,1.2-11.9c-0.5-0.2-0.8-0.6-0.8-1.3
			c0.6-1.6,1.5-2.4,2.7-2.4C1219.6,191.7,1220.2,191.6,1221.6,191.4z M1221.3,195.7v0.4c0,0.2,0,0.4,0,0.6l0,0.3
			c0,0.2,0,0.7-0.1,1.3c-0.2,2.5-0.4,4.9-0.6,7.2c1.9,0,3.5-1.4,4.6-4.1c0.1-0.7,0.2-1.2,0.2-1.7v-0.4c0.1-2.3-0.9-3.6-3.3-4
			C1221.6,195.4,1221.3,195.5,1221.3,195.7z"/>
		<path d="M1237.4,191.4h1.4c2,0,3.5,1.3,4.4,3.8v0.3c0,2.6-2.1,4.9-6.4,6.8v0.3c3.9,2.2,6,3.5,6.2,4c0.1,0.2,0.1,0.4,0.1,0.6v0.4
			c0,0.3-0.5,0.5-1.4,0.7c-2,0-4.5-1.4-7.7-4.3v2.7c0,1.7-0.7,2.6-2.1,2.6c-0.1,0-0.5-0.2-1-0.6c-0.2-4.8-0.3-7.5-0.3-8.2
			c0.1-1.4,0.1-2.6,0.1-3.6c0.1,0,0.1,0,0.1-0.1c-0.5-0.3-0.7-0.6-0.7-1c0-1.4,1.6-2.7,4.7-3.8
			C1235.8,191.6,1236.6,191.4,1237.4,191.4z M1233.9,196l0.1,0.3v4c4-1.7,6-3.3,6-4.7v-0.1c-0.3-0.6-0.9-0.8-1.7-0.8h-0.1
			C1236.4,194.6,1235,195,1233.9,196z"/>
		<path d="M1253.5,191.4c3.5,0.4,5.2,2,5.2,4.6c0.1,0.6,0.1,1.7,0.1,3.1c-0.4,2.8-1.2,5-2.4,6.6c-2.1,2.4-4,3.6-5.8,3.6h-1.1
			c-2.4,0-4-1.9-4.9-5.8v-0.6c0-5.6,2.2-9.4,6.6-11.2C1252,191.6,1252.7,191.4,1253.5,191.4z M1247.9,202.5v0.3
			c0.2,2.1,0.9,3.2,2,3.2h0.7c1.4,0,2.9-1.5,4.6-4.6c0.6-1.4,0.9-3,0.9-4.7c0-1.5-0.6-2.3-1.7-2.3h-1.3c-1.4,0-2.8,1.2-4.3,3.6
			C1248.1,199.8,1247.9,201.3,1247.9,202.5z"/>
		<path d="M1267.6,191.4h0.7c2.1,0,3.5,1,4.1,3c0.2,0.3,0.3,0.6,0.3,0.8v0.4c-0.1,1.7-1.1,3.5-2.8,5.2c-2.3,1.6-4.4,2.4-6.2,2.4
			c-0.2-0.1-0.3-0.1-0.4-0.1c0.1,2,0.1,3.5,0.1,4.5v0.1c0,1-0.4,1.6-1.3,1.6c-1.2,0-1.8-1-1.8-3c-0.1-0.3-0.1-1.3-0.1-3v-0.3
			c0-6.4,0.5-9.7,1.4-9.7c0.3,0,0.9-0.3,1.9-1C1264.8,191.8,1266.2,191.4,1267.6,191.4z M1263,196.1c0.1,1.8,0.1,3.2,0.1,4.4v0.4
			l4.4-2.3c1.3-1.3,2-2.5,2-3.4c-0.2-0.7-0.6-1-1.3-1h-0.4C1265.7,194.3,1264.1,194.9,1263,196.1z"/>
		<path d="M1282.9,191.4c1.4,0,2.3,1.1,2.5,3.4c0,2.1-0.6,5.7-1.7,10.9l1.4,1.6v0.1c0,1-0.8,1.7-2.5,2c-1.7,0-2.5-1.1-2.5-3.4
			c1.1-6.7,1.7-10.3,1.7-10.9l-0.7-2.3C1281.4,191.9,1282,191.4,1282.9,191.4z"/>
		<path d="M1288.2,191.5h1.6c6.9,0.4,10.4,1,10.4,1.6l0.3,0.9c-0.2,1.1-0.7,1.6-1.6,1.6c-0.5,0-2.1-0.1-4.5-0.3
			c0.2,5,0.3,9.1,0.3,12.3c0,1.2-0.5,1.7-1.6,1.7h-0.4c-0.8,0-1.2-0.5-1.2-1.6v-8.9c0-0.8,0-1.8-0.1-3.1c0.1-0.2,0.1-0.4,0.1-0.7
			c-0.2-0.1-0.9-0.2-2.2-0.3c-0.7,0.1-1.2,0.1-1.6,0.1c-0.7,0-1-0.3-1-1v-0.9C1286.6,192.1,1287.2,191.7,1288.2,191.5z"/>
		<path d="M1308.4,191.5c1.8,0,3.1,0.8,3.6,2.4c0.2,0.5,0.3,0.9,0.3,1.1c-0.2,1.4-0.7,2.1-1.5,2.1s-1.5-0.8-1.8-2.4h-1
			c-1.4,0-2.2,0.6-2.4,1.8c0.2,0.9,1.8,2.3,4.6,4.2c1.8,1.8,2.7,3.2,2.7,4.1c0,2.6-1.7,4.1-5.2,4.6h-1.3c-2.1,0-3.6-1.4-4.6-4.3
			v-0.3c0.2-1,0.7-1.6,1.4-1.6c0.5,0,1,0.7,1.4,2c0.7,0.7,1.5,1.1,2.2,1.1c1-0.1,1.9-0.4,2.7-0.8v-0.7c-1-1.3-2.8-2.8-5.5-4.6
			c-1.1-1.3-1.7-2.6-1.7-3.9v-0.1c0-2.4,1.8-3.9,5.5-4.6H1308.4z"/>
		<path d="M1327.8,191.4h0.7c2.1,0,3.5,1,4.1,3c0.2,0.3,0.3,0.6,0.3,0.8v0.4c-0.1,1.7-1.1,3.5-2.8,5.2c-2.3,1.6-4.4,2.4-6.2,2.4
			c-0.2-0.1-0.3-0.1-0.4-0.1c0.1,2,0.1,3.5,0.1,4.5v0.1c0,1-0.4,1.6-1.3,1.6c-1.2,0-1.8-1-1.8-3c-0.1-0.3-0.1-1.3-0.1-3v-0.3
			c0-6.4,0.5-9.7,1.4-9.7c0.3,0,0.9-0.3,1.9-1C1325,191.8,1326.4,191.4,1327.8,191.4z M1323.2,196.1c0.1,1.8,0.1,3.2,0.1,4.4v0.4
			l4.4-2.3c1.3-1.3,2-2.5,2-3.4c-0.2-0.7-0.6-1-1.3-1h-0.4C1325.9,194.3,1324.3,194.9,1323.2,196.1z"/>
		<path d="M1339.8,191.5h0.7c1.2,0,2.2,2.4,3,7.2l2.7,9.9c-0.3,0.9-0.9,1.3-1.7,1.3h-0.2c-1.3,0-2.3-2.2-3-6.6l-1.5-0.1h-0.3
			c-1.1,0-1.6,0.2-1.6,0.7c0,2.9-0.6,4.4-1.7,4.7h-0.3c-1.2-0.1-1.9-0.6-1.9-1.4c0.4-4.1,1.1-7.7,2.2-10.9
			C1337.3,193,1338.5,191.5,1339.8,191.5z M1339.8,196.6c-0.7,2.1-1,3.3-1,3.6v0.1c1.2-0.3,1.7-0.5,1.7-0.6l-0.6-3.2H1339.8z"/>
		<path d="M1354.6,191.4h1.4c2,0,3.5,1.3,4.4,3.8v0.3c0,2.6-2.1,4.9-6.4,6.8v0.3c3.9,2.2,6,3.5,6.2,4c0.1,0.2,0.1,0.4,0.1,0.6v0.4
			c0,0.3-0.5,0.5-1.4,0.7c-2,0-4.5-1.4-7.7-4.3v2.7c0,1.7-0.7,2.6-2.1,2.6c-0.1,0-0.5-0.2-1-0.6c-0.2-4.8-0.3-7.5-0.3-8.2
			c0.1-1.4,0.1-2.6,0.1-3.6c0.1,0,0.1,0,0.1-0.1c-0.5-0.3-0.7-0.6-0.7-1c0-1.4,1.6-2.7,4.7-3.8
			C1353,191.6,1353.8,191.4,1354.6,191.4z M1351,196l0.1,0.3v4c4-1.7,6-3.3,6-4.7v-0.1c-0.3-0.6-0.9-0.8-1.7-0.8h-0.1
			C1353.6,194.6,1352.2,195,1351,196z"/>
		<path d="M1363.3,191.5h1.6c6.9,0.4,10.4,1,10.4,1.6l0.3,0.9c-0.2,1.1-0.7,1.6-1.6,1.6c-0.5,0-2.1-0.1-4.5-0.3
			c0.2,5,0.3,9.1,0.3,12.3c0,1.2-0.5,1.7-1.6,1.7h-0.4c-0.8,0-1.2-0.5-1.2-1.6v-8.9c0-0.8,0-1.8-0.1-3.1c0.1-0.2,0.1-0.4,0.1-0.7
			c-0.2-0.1-0.9-0.2-2.2-0.3c-0.7,0.1-1.2,0.1-1.6,0.1c-0.7,0-1-0.3-1-1v-0.9C1361.7,192.1,1362.2,191.7,1363.3,191.5z"/>
		<path d="M1383.5,191.5c1.8,0,3.1,0.8,3.6,2.4c0.2,0.5,0.3,0.9,0.3,1.1c-0.2,1.4-0.7,2.1-1.5,2.1s-1.5-0.8-1.8-2.4h-1
			c-1.4,0-2.2,0.6-2.4,1.8c0.2,0.9,1.8,2.3,4.6,4.2c1.8,1.8,2.7,3.2,2.7,4.1c0,2.6-1.7,4.1-5.2,4.6h-1.3c-2.1,0-3.6-1.4-4.6-4.3
			v-0.3c0.2-1,0.7-1.6,1.4-1.6c0.5,0,1,0.7,1.4,2c0.7,0.7,1.5,1.1,2.2,1.1c1-0.1,1.9-0.4,2.7-0.8v-0.7c-1-1.3-2.8-2.8-5.5-4.6
			c-1.1-1.3-1.7-2.6-1.7-3.9v-0.1c0-2.4,1.8-3.9,5.5-4.6H1383.5z"/>
		<path d="M1396.9,191.5h1.6c6.9,0.4,10.4,1,10.4,1.6l0.3,0.9c-0.2,1.1-0.7,1.6-1.6,1.6c-0.5,0-2.1-0.1-4.5-0.3
			c0.2,5,0.3,9.1,0.3,12.3c0,1.2-0.5,1.7-1.6,1.7h-0.4c-0.8,0-1.2-0.5-1.2-1.6v-8.9c0-0.8,0-1.8-0.1-3.1c0.1-0.2,0.1-0.4,0.1-0.7
			c-0.2-0.1-0.9-0.2-2.2-0.3c-0.7,0.1-1.2,0.1-1.6,0.1c-0.7,0-1-0.3-1-1v-0.9C1395.3,192.1,1395.8,191.7,1396.9,191.5z"/>
		<path d="M1419.4,191.4c3.5,0.4,5.2,2,5.2,4.6c0.1,0.6,0.1,1.7,0.1,3.1c-0.4,2.8-1.2,5-2.4,6.6c-2.1,2.4-4,3.6-5.8,3.6h-1.1
			c-2.4,0-4-1.9-4.9-5.8v-0.6c0-5.6,2.2-9.4,6.6-11.2C1417.9,191.6,1418.7,191.4,1419.4,191.4z M1413.8,202.5v0.3
			c0.2,2.1,0.9,3.2,2,3.2h0.7c1.4,0,2.9-1.5,4.6-4.6c0.6-1.4,0.9-3,0.9-4.7c0-1.5-0.6-2.3-1.7-2.3h-1.3c-1.4,0-2.8,1.2-4.3,3.6
			C1414.1,199.8,1413.8,201.3,1413.8,202.5z"/>
		<path d="M1440.2,191.5h0.1c2.8,0.3,4.2,1.6,4.2,3.7c-0.2,1.4-0.8,2.2-1.6,2.2c-0.9,0-1.5-0.9-1.7-2.6l-0.7-0.1h-0.1
			c-1.3,0-2.7,1.8-4.2,5.3c-0.2,0.4-0.3,1.1-0.3,2c0.2,2.3,0.8,3.5,1.7,3.5h0.4c1.8-0.7,3-1,3.5-1c0.7,0,1.2,0.5,1.4,1.4
			c0,1.6-1.7,2.7-5,3.5c-3.2,0-5.1-2.4-5.8-7.2v-0.7c0-1.7,1.2-4.2,3.5-7.3C1437.1,192.3,1438.6,191.5,1440.2,191.5z"/>
		<path d="M1454.7,191.4c3.5,0.4,5.2,2,5.2,4.6c0.1,0.6,0.1,1.7,0.1,3.1c-0.4,2.8-1.2,5-2.4,6.6c-2.1,2.4-4,3.6-5.8,3.6h-1.1
			c-2.4,0-4-1.9-4.9-5.8v-0.6c0-5.6,2.2-9.4,6.6-11.2C1453.2,191.6,1454,191.4,1454.7,191.4z M1449.1,202.5v0.3
			c0.2,2.1,0.9,3.2,2,3.2h0.7c1.4,0,2.9-1.5,4.6-4.6c0.6-1.4,0.9-3,0.9-4.7c0-1.5-0.6-2.3-1.7-2.3h-1.3c-1.4,0-2.8,1.2-4.3,3.6
			C1449.4,199.8,1449.1,201.3,1449.1,202.5z"/>
		<path d="M1464,191.4c1.7,1.2,3.2,3.4,4.7,6.7c0.1,0.2,0.1,0.3,0.1,0.4h0.3c0.9-2.5,2.1-4.5,3.6-6h0.6c1.2,0,1.8,0.7,1.8,2.1
			c0,2.4,0,5.9,0.1,10.4c0,0.9,0,1.7,0,2.3c-0.1,1.4-0.7,2.1-1.8,2.1c-1.2,0-1.8-1.3-1.7-3.8l-0.1-1.6c0-0.5,0-1.2,0.1-2v-0.1l0-1.1
			c-0.7,2.4-1.5,3.5-2.2,3.5h-0.1c-1.2,0-2.3-1.3-3.4-4c-0.2,0-0.4-0.4-0.6-1.1h-0.3v0.1c0,6.7-0.2,10-0.6,10l-1,0.1h-0.4
			c-1.1,0-1.7-1.4-1.7-4.1c0-9,0.5-13.6,1.6-13.6L1464,191.4z"/>
		<path d="M1484,191.4h0.7c2.1,0,3.5,1,4.1,3c0.2,0.3,0.3,0.6,0.3,0.8v0.4c-0.1,1.7-1.1,3.5-2.8,5.2c-2.3,1.6-4.4,2.4-6.2,2.4
			c-0.2-0.1-0.3-0.1-0.4-0.1c0.1,2,0.1,3.5,0.1,4.5v0.1c0,1-0.4,1.6-1.3,1.6c-1.2,0-1.8-1-1.8-3c-0.1-0.3-0.1-1.3-0.1-3v-0.3
			c0-6.4,0.5-9.7,1.4-9.7c0.3,0,0.9-0.3,1.9-1C1481.2,191.8,1482.6,191.4,1484,191.4z M1479.4,196.1c0.1,1.8,0.1,3.2,0.1,4.4v0.4
			l4.4-2.3c1.3-1.3,2-2.5,2-3.4c-0.2-0.7-0.6-1-1.3-1h-0.4C1482.1,194.3,1480.5,194.9,1479.4,196.1z"/>
		<path d="M1493.7,191.4h0.5c0.7,0.4,1,1,1,1.8c-0.8,7.8-1.2,12-1.2,12.4c2.3-0.2,4.1-0.3,5.4-0.3h1.8c1.1,0.1,1.7,0.6,1.7,1.4v0.3
			c-0.4,1.5-1.1,2.2-2.1,2.2c-1.6-0.4-3.6-0.5-6.2-0.5c-0.3,0-1.2,0.1-2.6,0.2c-0.8,0-1.3-0.6-1.7-1.8c0.7-7.9,1.3-12.6,1.8-14.2
			c-0.1-0.2-0.1-0.3-0.1-0.6v-0.1C1492.4,191.7,1492.9,191.4,1493.7,191.4z"/>
		<path d="M1509.5,191.5c4.9,0,7.4,0.5,7.4,1.4v0.7c0,0.7-0.5,1.2-1.4,1.3h-1.6c-1.8,0-3.4-0.1-4.7-0.4c-0.2,0.3-0.4,1.8-0.6,4.6
			c1.8-0.3,3.4-0.4,4.8-0.4h0.3c0.8,0,1.3,0.5,1.6,1.4c0,1.2-1.6,1.9-4.8,1.9h-2.3v0.1c-0.2,1.8-0.3,3-0.3,3.6h0.1
			c2.9-0.9,4.4-1.3,4.7-1.3l1.3-0.1c1,0.3,1.4,0.8,1.4,1.6c0,1.5-2.6,2.7-7.8,3.6h-0.1c-1.6,0-2.7-1-3.3-3v-2
			c0.8-8.2,2-12.2,3.6-12.2L1509.5,191.5z"/>
		<path d="M1519.7,191.5h1.6c6.9,0.4,10.4,1,10.4,1.6l0.3,0.9c-0.2,1.1-0.7,1.6-1.6,1.6c-0.5,0-2.1-0.1-4.5-0.3
			c0.2,5,0.3,9.1,0.3,12.3c0,1.2-0.5,1.7-1.6,1.7h-0.4c-0.8,0-1.2-0.5-1.2-1.6v-8.9c0-0.8,0-1.8-0.1-3.1c0.1-0.2,0.1-0.4,0.1-0.7
			c-0.2-0.1-0.9-0.2-2.2-0.3c-0.7,0.1-1.2,0.1-1.6,0.1c-0.7,0-1-0.3-1-1v-0.9C1518.1,192.1,1518.7,191.7,1519.7,191.5z"/>
		<path d="M1538.6,191.5c4.9,0,7.4,0.5,7.4,1.4v0.7c0,0.7-0.5,1.2-1.4,1.3h-1.6c-1.8,0-3.4-0.1-4.7-0.4c-0.2,0.3-0.4,1.8-0.6,4.6
			c1.8-0.3,3.4-0.4,4.8-0.4h0.3c0.8,0,1.3,0.5,1.6,1.4c0,1.2-1.6,1.9-4.8,1.9h-2.3v0.1c-0.2,1.8-0.3,3-0.3,3.6h0.1
			c2.9-0.9,4.4-1.3,4.7-1.3l1.3-0.1c1,0.3,1.4,0.8,1.4,1.6c0,1.5-2.6,2.7-7.8,3.6h-0.1c-1.6,0-2.7-1-3.3-3v-2
			c0.8-8.2,2-12.2,3.6-12.2L1538.6,191.5z"/>
		<path d="M1556.1,191.4c1.4,0,2.3,1.1,2.5,3.4c0,2.1-0.6,5.7-1.7,10.9l1.4,1.6v0.1c0,1-0.8,1.7-2.5,2c-1.7,0-2.5-1.1-2.5-3.4
			c1.1-6.7,1.7-10.3,1.7-10.9l-0.7-2.3C1554.7,191.9,1555.3,191.4,1556.1,191.4z"/>
		<path d="M1561.5,191.5h1.6c6.9,0.4,10.4,1,10.4,1.6l0.3,0.9c-0.2,1.1-0.7,1.6-1.6,1.6c-0.5,0-2.1-0.1-4.5-0.3
			c0.2,5,0.3,9.1,0.3,12.3c0,1.2-0.5,1.7-1.6,1.7h-0.4c-0.8,0-1.2-0.5-1.2-1.6v-8.9c0-0.8,0-1.8-0.1-3.1c0.1-0.2,0.1-0.4,0.1-0.7
			c-0.2-0.1-0.9-0.2-2.2-0.3c-0.7,0.1-1.2,0.1-1.6,0.1c-0.7,0-1-0.3-1-1v-0.9C1559.9,192.1,1560.5,191.7,1561.5,191.5z"/>
		<path d="M1581.7,191.5c1.8,0,3.1,0.8,3.6,2.4c0.2,0.5,0.3,0.9,0.3,1.1c-0.2,1.4-0.7,2.1-1.5,2.1s-1.5-0.8-1.8-2.4h-1
			c-1.4,0-2.2,0.6-2.4,1.8c0.2,0.9,1.8,2.3,4.6,4.2c1.8,1.8,2.7,3.2,2.7,4.1c0,2.6-1.7,4.1-5.2,4.6h-1.3c-2.1,0-3.6-1.4-4.6-4.3
			v-0.3c0.2-1,0.7-1.6,1.4-1.6c0.5,0,1,0.7,1.4,2c0.7,0.7,1.5,1.1,2.2,1.1c1-0.1,1.9-0.4,2.7-0.8v-0.7c-1-1.3-2.8-2.8-5.5-4.6
			c-1.1-1.3-1.7-2.6-1.7-3.9v-0.1c0-2.4,1.8-3.9,5.5-4.6H1581.7z"/>
		<path d="M1598,191.4h0.6c3,0.7,4.5,2.1,4.5,4.1v0.8c0,0.8-0.4,1.7-1.3,2.8v0.1c2.3,1.2,3.5,2.6,3.5,4.4v0.6c0,2-1.5,3.5-4.6,4.5
			l-3.2,0.6h-0.8c-1.9-0.4-2.8-1.4-2.8-2.8c0-0.4-0.1-2.1-0.3-5.1c0-6.4,0.6-9.6,1.7-9.6l0.3-0.1c0.5,0.1,0.9,0.1,1.1,0.1
			C1597.1,191.6,1597.6,191.4,1598,191.4z M1596.9,194.4v4.2c2.1-0.8,3.1-1.7,3.1-2.7c0-0.8-0.7-1.4-2-1.6H1596.9z M1596.9,202
			l0.3,3.8c-0.1,0-0.1,0-0.1,0.1l0.3,0.1h0.7c2.8-0.3,4.2-1,4.2-2.1c0-1.1-1-2-3.1-2.7C1598.3,201.5,1597.5,201.7,1596.9,202z"/>
		<path d="M1609.2,191.5c1.1,0,1.9,0.8,2.2,2.5c-0.6,4.6-0.9,7.4-0.9,8.4c0.2,2.2,0.7,3.3,1.6,3.3c2.4,0,3.6-3.9,3.6-11.6
			c0-1.6,0.4-2.5,1.3-2.5h0.6c1.1,0,1.8,0.9,2,2.6c0,7.9-1.3,12.5-3.9,13.9c-0.9,0.8-1.9,1.2-3,1.3h-1.3c-2.8,0-4.4-2.9-4.8-8.8
			c0.3-6.1,1-9.1,1.9-9.1H1609.2z"/>
		<path d="M1623.8,191.4c1.4,0,2.3,1.1,2.5,3.4c0,2.1-0.6,5.7-1.7,10.9l1.4,1.6v0.1c0,1-0.8,1.7-2.5,2c-1.7,0-2.5-1.1-2.5-3.4
			c1.1-6.7,1.7-10.3,1.7-10.9l-0.7-2.3C1622.3,191.9,1622.9,191.4,1623.8,191.4z"/>
		<path d="M1630.9,191.4h0.5c0.7,0.4,1,1,1,1.8c-0.8,7.8-1.2,12-1.2,12.4c2.3-0.2,4.1-0.3,5.4-0.3h1.8c1.1,0.1,1.7,0.6,1.7,1.4v0.3
			c-0.4,1.5-1.1,2.2-2.1,2.2c-1.6-0.4-3.6-0.5-6.2-0.5c-0.3,0-1.2,0.1-2.6,0.2c-0.8,0-1.3-0.6-1.7-1.8c0.7-7.9,1.3-12.6,1.8-14.2
			c-0.1-0.2-0.1-0.3-0.1-0.6v-0.1C1629.6,191.7,1630.1,191.4,1630.9,191.4z"/>
		<path d="M1646.5,191.4c2.2,0.1,4.2,1.2,6.1,3.5c0.9,1.4,1.4,3,1.4,4.5c-0.1,4.5-2.4,7.6-6.9,9.5c-0.4,0.1-0.7,0.1-1.1,0.1h-0.7
			l-0.8-0.1c-0.3,0.2-0.6,0.3-0.9,0.3h-0.6c-0.8,0-1.3-0.6-1.6-1.8c0.3-1.1,0.8-5,1.2-11.9c-0.5-0.2-0.8-0.6-0.8-1.3
			c0.6-1.6,1.5-2.4,2.7-2.4C1644.5,191.7,1645.2,191.6,1646.5,191.4z M1646.2,195.7v0.4c0,0.2,0,0.4,0,0.6l0,0.3
			c0,0.2,0,0.7-0.1,1.3c-0.2,2.5-0.4,4.9-0.6,7.2c1.9,0,3.5-1.4,4.6-4.1c0.1-0.7,0.2-1.2,0.2-1.7v-0.4c0.1-2.3-0.9-3.6-3.3-4
			C1646.5,195.4,1646.2,195.5,1646.2,195.7z"/>
		<path d="M1656.7,205.8c1.3,0.4,1.9,1.1,1.9,2.2v0.2c0,1-0.5,1.4-1.4,1.4c-1.3-0.6-1.9-1.4-1.9-2.2v-0.2
			C1655.5,206.3,1655.9,205.8,1656.7,205.8z"/>
	</g>
</g>
</svg>
